<mxfile host="app.diagrams.net" agent="Mozilla/5.0 (Windows NT 10.0; Win64; x64) AppleWebKit/537.36 (KHTML, like Gecko) Chrome/133.0.0.0 Safari/537.36" version="26.1.0">
  <diagram id="R2lEEEUBdFMjLlhIrx00" name="Page-1">
    <mxGraphModel grid="0" page="1" gridSize="10" guides="1" tooltips="1" connect="1" arrows="1" fold="1" pageScale="1" pageWidth="1169" pageHeight="827" background="#FFFFFF" math="0" shadow="1" extFonts="Permanent Marker^https://fonts.googleapis.com/css?family=Permanent+Marker">
      <root>
        <mxCell id="0" />
        <mxCell id="1" parent="0" />
        <mxCell id="YlkrvOhkguZ3ZTi_6gmJ-1" value="Pharmacist" style="whiteSpace=wrap;html=1;align=center;rounded=1;" vertex="1" parent="1">
          <mxGeometry x="-14" y="-239" width="100" height="40" as="geometry" />
        </mxCell>
        <mxCell id="YlkrvOhkguZ3ZTi_6gmJ-2" value="Id" style="ellipse;whiteSpace=wrap;html=1;align=center;fontStyle=4;rounded=1;" vertex="1" parent="1">
          <mxGeometry x="246" y="-248.25" width="80" height="40" as="geometry" />
        </mxCell>
        <mxCell id="YlkrvOhkguZ3ZTi_6gmJ-3" value="Name" style="ellipse;whiteSpace=wrap;html=1;align=center;rounded=1;" vertex="1" parent="1">
          <mxGeometry x="330.5" y="-312" width="70" height="40" as="geometry" />
        </mxCell>
        <mxCell id="YlkrvOhkguZ3ZTi_6gmJ-4" value="LastName" style="ellipse;whiteSpace=wrap;html=1;align=center;rounded=1;" vertex="1" parent="1">
          <mxGeometry x="316.5" y="-368" width="78.5" height="40" as="geometry" />
        </mxCell>
        <mxCell id="YlkrvOhkguZ3ZTi_6gmJ-5" value="FirstName" style="ellipse;whiteSpace=wrap;html=1;align=center;rounded=1;" vertex="1" parent="1">
          <mxGeometry x="244.5" y="-342.75" width="76" height="40" as="geometry" />
        </mxCell>
        <mxCell id="YlkrvOhkguZ3ZTi_6gmJ-9" value="Phone" style="ellipse;shape=doubleEllipse;margin=3;whiteSpace=wrap;html=1;align=center;rounded=1;" vertex="1" parent="1">
          <mxGeometry x="442" y="-299" width="76" height="40" as="geometry" />
        </mxCell>
        <mxCell id="YlkrvOhkguZ3ZTi_6gmJ-12" value="Country" style="ellipse;whiteSpace=wrap;html=1;align=center;rounded=1;" vertex="1" parent="1">
          <mxGeometry x="624" y="-295" width="100" height="40" as="geometry" />
        </mxCell>
        <mxCell id="YlkrvOhkguZ3ZTi_6gmJ-13" value="City" style="ellipse;whiteSpace=wrap;html=1;align=center;rounded=1;" vertex="1" parent="1">
          <mxGeometry x="573" y="-255" width="100" height="40" as="geometry" />
        </mxCell>
        <mxCell id="YlkrvOhkguZ3ZTi_6gmJ-14" value="Street" style="ellipse;whiteSpace=wrap;html=1;align=center;rounded=1;" vertex="1" parent="1">
          <mxGeometry x="526" y="-312" width="100" height="40" as="geometry" />
        </mxCell>
        <mxCell id="YlkrvOhkguZ3ZTi_6gmJ-16" value="Hire_Date" style="ellipse;whiteSpace=wrap;html=1;align=center;rounded=1;" vertex="1" parent="1">
          <mxGeometry x="-124" y="-312" width="100" height="40" as="geometry" />
        </mxCell>
        <mxCell id="YlkrvOhkguZ3ZTi_6gmJ-17" value="PasswordHash" style="ellipse;whiteSpace=wrap;html=1;align=center;rounded=1;" vertex="1" parent="1">
          <mxGeometry x="238.5" y="-288.25" width="100" height="40" as="geometry" />
        </mxCell>
        <mxCell id="YlkrvOhkguZ3ZTi_6gmJ-19" value="" style="endArrow=none;html=1;rounded=1;entryX=1;entryY=1;entryDx=0;entryDy=0;exitX=0.5;exitY=0;exitDx=0;exitDy=0;" edge="1" parent="1" source="YlkrvOhkguZ3ZTi_6gmJ-1" target="YlkrvOhkguZ3ZTi_6gmJ-16">
          <mxGeometry width="50" height="50" relative="1" as="geometry">
            <mxPoint x="262" y="-651" as="sourcePoint" />
            <mxPoint x="312" y="-701" as="targetPoint" />
          </mxGeometry>
        </mxCell>
        <mxCell id="YlkrvOhkguZ3ZTi_6gmJ-20" value="" style="endArrow=none;html=1;rounded=1;entryX=0.032;entryY=0.693;entryDx=0;entryDy=0;entryPerimeter=0;exitX=0.5;exitY=0;exitDx=0;exitDy=0;" edge="1" parent="1" source="CGa-SedKmjcSmWojBplO-3" target="k-QJ3cULIfFd8rDCMGmY-93">
          <mxGeometry width="50" height="50" relative="1" as="geometry">
            <mxPoint x="395" y="-228" as="sourcePoint" />
            <mxPoint x="512" y="-265.57500000000005" as="targetPoint" />
          </mxGeometry>
        </mxCell>
        <mxCell id="YlkrvOhkguZ3ZTi_6gmJ-21" value="" style="endArrow=none;html=1;rounded=1;entryX=0.5;entryY=1;entryDx=0;entryDy=0;exitX=0.5;exitY=0;exitDx=0;exitDy=0;" edge="1" parent="1" source="CGa-SedKmjcSmWojBplO-3" target="YlkrvOhkguZ3ZTi_6gmJ-9">
          <mxGeometry width="50" height="50" relative="1" as="geometry">
            <mxPoint x="399" y="-227.75" as="sourcePoint" />
            <mxPoint x="458" y="-293.75" as="targetPoint" />
          </mxGeometry>
        </mxCell>
        <mxCell id="YlkrvOhkguZ3ZTi_6gmJ-22" value="" style="endArrow=none;html=1;rounded=1;exitX=0.5;exitY=1;exitDx=0;exitDy=0;entryX=0.5;entryY=0;entryDx=0;entryDy=0;" edge="1" parent="1" source="YlkrvOhkguZ3ZTi_6gmJ-3" target="CGa-SedKmjcSmWojBplO-3">
          <mxGeometry width="50" height="50" relative="1" as="geometry">
            <mxPoint x="231" y="-206.75" as="sourcePoint" />
            <mxPoint x="401" y="-227.75" as="targetPoint" />
          </mxGeometry>
        </mxCell>
        <mxCell id="YlkrvOhkguZ3ZTi_6gmJ-23" value="" style="endArrow=none;html=1;rounded=1;exitX=0.94;exitY=0.725;exitDx=0;exitDy=0;exitPerimeter=0;entryX=0.5;entryY=0;entryDx=0;entryDy=0;" edge="1" parent="1" source="YlkrvOhkguZ3ZTi_6gmJ-17" target="CGa-SedKmjcSmWojBplO-3">
          <mxGeometry width="50" height="50" relative="1" as="geometry">
            <mxPoint x="277" y="-279.25" as="sourcePoint" />
            <mxPoint x="401" y="-228.75" as="targetPoint" />
          </mxGeometry>
        </mxCell>
        <mxCell id="YlkrvOhkguZ3ZTi_6gmJ-24" value="" style="endArrow=none;html=1;rounded=1;entryX=0.5;entryY=0;entryDx=0;entryDy=0;exitX=1;exitY=0.5;exitDx=0;exitDy=0;" edge="1" parent="1" source="YlkrvOhkguZ3ZTi_6gmJ-2" target="CGa-SedKmjcSmWojBplO-3">
          <mxGeometry width="50" height="50" relative="1" as="geometry">
            <mxPoint x="254" y="-242.75" as="sourcePoint" />
            <mxPoint x="399" y="-227.75" as="targetPoint" />
          </mxGeometry>
        </mxCell>
        <mxCell id="YlkrvOhkguZ3ZTi_6gmJ-25" value="" style="endArrow=none;html=1;rounded=1;entryX=0.036;entryY=0.643;entryDx=0;entryDy=0;exitX=1;exitY=0;exitDx=0;exitDy=0;entryPerimeter=0;" edge="1" parent="1" source="k-QJ3cULIfFd8rDCMGmY-93" target="YlkrvOhkguZ3ZTi_6gmJ-12">
          <mxGeometry width="50" height="50" relative="1" as="geometry">
            <mxPoint x="591.9871785963833" y="-241.98697235989016" as="sourcePoint" />
            <mxPoint x="623.499999999975" y="-217.75" as="targetPoint" />
          </mxGeometry>
        </mxCell>
        <mxCell id="YlkrvOhkguZ3ZTi_6gmJ-28" value="" style="endArrow=none;html=1;rounded=1;entryX=0;entryY=0.5;entryDx=0;entryDy=0;exitX=1;exitY=0;exitDx=0;exitDy=0;" edge="1" parent="1" source="k-QJ3cULIfFd8rDCMGmY-93" target="YlkrvOhkguZ3ZTi_6gmJ-13">
          <mxGeometry width="50" height="50" relative="1" as="geometry">
            <mxPoint x="591.9871785963833" y="-241.98697235989016" as="sourcePoint" />
            <mxPoint x="620.5" y="-280.25" as="targetPoint" />
          </mxGeometry>
        </mxCell>
        <mxCell id="YlkrvOhkguZ3ZTi_6gmJ-30" value="" style="endArrow=none;html=1;rounded=1;entryX=0.5;entryY=1;entryDx=0;entryDy=0;exitX=1;exitY=0;exitDx=0;exitDy=0;" edge="1" parent="1" source="k-QJ3cULIfFd8rDCMGmY-93" target="YlkrvOhkguZ3ZTi_6gmJ-14">
          <mxGeometry width="50" height="50" relative="1" as="geometry">
            <mxPoint x="591.9871785963833" y="-241.98697235989016" as="sourcePoint" />
            <mxPoint x="552.5" y="-293.75" as="targetPoint" />
          </mxGeometry>
        </mxCell>
        <mxCell id="YlkrvOhkguZ3ZTi_6gmJ-31" value="" style="endArrow=none;html=1;rounded=1;entryX=0.5;entryY=1;entryDx=0;entryDy=0;exitX=0;exitY=0;exitDx=0;exitDy=0;" edge="1" parent="1" source="YlkrvOhkguZ3ZTi_6gmJ-3" target="YlkrvOhkguZ3ZTi_6gmJ-4">
          <mxGeometry width="50" height="50" relative="1" as="geometry">
            <mxPoint x="222" y="-346.75" as="sourcePoint" />
            <mxPoint x="394" y="-367.75" as="targetPoint" />
          </mxGeometry>
        </mxCell>
        <mxCell id="YlkrvOhkguZ3ZTi_6gmJ-32" value="" style="endArrow=none;html=1;rounded=1;entryX=0;entryY=0;entryDx=0;entryDy=0;exitX=1;exitY=1;exitDx=0;exitDy=0;" edge="1" parent="1" source="YlkrvOhkguZ3ZTi_6gmJ-5" target="YlkrvOhkguZ3ZTi_6gmJ-3">
          <mxGeometry width="50" height="50" relative="1" as="geometry">
            <mxPoint x="290" y="-348.75" as="sourcePoint" />
            <mxPoint x="333" y="-333.75" as="targetPoint" />
          </mxGeometry>
        </mxCell>
        <mxCell id="YlkrvOhkguZ3ZTi_6gmJ-33" value="&amp;nbsp;Customer" style="whiteSpace=wrap;html=1;align=center;rounded=1;" vertex="1" parent="1">
          <mxGeometry x="809" y="-252" width="100" height="40" as="geometry" />
        </mxCell>
        <mxCell id="YlkrvOhkguZ3ZTi_6gmJ-48" value="Email" style="ellipse;whiteSpace=wrap;html=1;align=center;rounded=1;" vertex="1" parent="1">
          <mxGeometry x="395" y="-333" width="72" height="40" as="geometry" />
        </mxCell>
        <mxCell id="YlkrvOhkguZ3ZTi_6gmJ-49" value="" style="endArrow=none;html=1;rounded=1;entryX=0.5;entryY=1;entryDx=0;entryDy=0;exitX=0.5;exitY=0;exitDx=0;exitDy=0;" edge="1" parent="1" source="CGa-SedKmjcSmWojBplO-3" target="YlkrvOhkguZ3ZTi_6gmJ-48">
          <mxGeometry width="50" height="50" relative="1" as="geometry">
            <mxPoint x="399" y="-227.75" as="sourcePoint" />
            <mxPoint x="413" y="-327.75" as="targetPoint" />
          </mxGeometry>
        </mxCell>
        <mxCell id="h6o7NREkk5LcOdEzi0ZQ-38" value="" style="endArrow=none;html=1;rounded=1;entryX=0.422;entryY=1;entryDx=0;entryDy=0;entryPerimeter=0;exitX=0.5;exitY=0;exitDx=0;exitDy=0;" edge="1" parent="1" source="h6o7NREkk5LcOdEzi0ZQ-35" target="h6o7NREkk5LcOdEzi0ZQ-33">
          <mxGeometry width="50" height="50" relative="1" as="geometry">
            <mxPoint x="294" y="-80.5" as="sourcePoint" />
            <mxPoint x="344" y="-130.5" as="targetPoint" />
          </mxGeometry>
        </mxCell>
        <mxCell id="YlkrvOhkguZ3ZTi_6gmJ-80" value="Order" style="whiteSpace=wrap;html=1;align=center;rounded=1;" vertex="1" parent="1">
          <mxGeometry x="302" y="101" width="100" height="40" as="geometry" />
        </mxCell>
        <mxCell id="YlkrvOhkguZ3ZTi_6gmJ-95" value="OrderId" style="ellipse;whiteSpace=wrap;html=1;align=center;fontStyle=4;rounded=1;" vertex="1" parent="1">
          <mxGeometry x="183" y="37" width="100" height="40" as="geometry" />
        </mxCell>
        <mxCell id="YlkrvOhkguZ3ZTi_6gmJ-96" value="OrderStatus" style="ellipse;whiteSpace=wrap;html=1;align=center;rounded=1;" vertex="1" parent="1">
          <mxGeometry x="293" y="21" width="100" height="40" as="geometry" />
        </mxCell>
        <mxCell id="YlkrvOhkguZ3ZTi_6gmJ-97" value="DeliveryAddress" style="ellipse;whiteSpace=wrap;html=1;align=center;rounded=1;" vertex="1" parent="1">
          <mxGeometry x="375" y="-8" width="100" height="40" as="geometry" />
        </mxCell>
        <mxCell id="YlkrvOhkguZ3ZTi_6gmJ-98" value="OrderType" style="ellipse;whiteSpace=wrap;html=1;align=center;rounded=1;" vertex="1" parent="1">
          <mxGeometry x="213" y="-3" width="100" height="40" as="geometry" />
        </mxCell>
        <mxCell id="YlkrvOhkguZ3ZTi_6gmJ-99" value="" style="endArrow=none;html=1;rounded=1;entryX=0.354;entryY=1.01;entryDx=0;entryDy=0;exitX=0.5;exitY=0;exitDx=0;exitDy=0;entryPerimeter=0;" edge="1" parent="1" target="YlkrvOhkguZ3ZTi_6gmJ-97">
          <mxGeometry width="50" height="50" relative="1" as="geometry">
            <mxPoint x="348" y="101" as="sourcePoint" />
            <mxPoint x="496.5" y="57" as="targetPoint" />
          </mxGeometry>
        </mxCell>
        <mxCell id="YlkrvOhkguZ3ZTi_6gmJ-100" value="" style="endArrow=none;html=1;rounded=1;exitX=0.5;exitY=1;exitDx=0;exitDy=0;" edge="1" parent="1" source="YlkrvOhkguZ3ZTi_6gmJ-96">
          <mxGeometry width="50" height="50" relative="1" as="geometry">
            <mxPoint x="180" y="122" as="sourcePoint" />
            <mxPoint x="350" y="101" as="targetPoint" />
          </mxGeometry>
        </mxCell>
        <mxCell id="YlkrvOhkguZ3ZTi_6gmJ-101" value="" style="endArrow=none;html=1;rounded=1;exitX=0.5;exitY=1;exitDx=0;exitDy=0;" edge="1" parent="1" source="YlkrvOhkguZ3ZTi_6gmJ-98">
          <mxGeometry width="50" height="50" relative="1" as="geometry">
            <mxPoint x="226" y="49.5" as="sourcePoint" />
            <mxPoint x="350" y="100" as="targetPoint" />
          </mxGeometry>
        </mxCell>
        <mxCell id="YlkrvOhkguZ3ZTi_6gmJ-102" value="" style="endArrow=none;html=1;rounded=1;entryX=0.5;entryY=0;entryDx=0;entryDy=0;exitX=0.654;exitY=0.95;exitDx=0;exitDy=0;exitPerimeter=0;" edge="1" parent="1" source="YlkrvOhkguZ3ZTi_6gmJ-95">
          <mxGeometry width="50" height="50" relative="1" as="geometry">
            <mxPoint x="203" y="86" as="sourcePoint" />
            <mxPoint x="348" y="101" as="targetPoint" />
          </mxGeometry>
        </mxCell>
        <mxCell id="YlkrvOhkguZ3ZTi_6gmJ-103" value="Process" style="shape=rhombus;perimeter=rhombusPerimeter;whiteSpace=wrap;html=1;align=center;rounded=1;" vertex="1" parent="1">
          <mxGeometry x="83" y="59" width="120" height="60" as="geometry" />
        </mxCell>
        <mxCell id="YlkrvOhkguZ3ZTi_6gmJ-104" value="" style="endArrow=none;html=1;rounded=1;entryX=0;entryY=0.5;entryDx=0;entryDy=0;exitX=0.5;exitY=1;exitDx=0;exitDy=0;" edge="1" parent="1" source="YlkrvOhkguZ3ZTi_6gmJ-1" target="YlkrvOhkguZ3ZTi_6gmJ-103">
          <mxGeometry relative="1" as="geometry">
            <mxPoint x="127" y="-265" as="sourcePoint" />
            <mxPoint x="287" y="-265" as="targetPoint" />
            <Array as="points">
              <mxPoint x="32" y="36" />
            </Array>
          </mxGeometry>
        </mxCell>
        <mxCell id="YlkrvOhkguZ3ZTi_6gmJ-106" value="" style="endArrow=none;html=1;rounded=1;entryX=0;entryY=0.5;entryDx=0;entryDy=0;shape=link;" edge="1" parent="1" target="YlkrvOhkguZ3ZTi_6gmJ-80">
          <mxGeometry relative="1" as="geometry">
            <mxPoint x="203" y="88" as="sourcePoint" />
            <mxPoint x="239" y="169" as="targetPoint" />
          </mxGeometry>
        </mxCell>
        <mxCell id="YlkrvOhkguZ3ZTi_6gmJ-107" value="N" style="text;html=1;align=center;verticalAlign=middle;resizable=0;points=[];autosize=1;strokeColor=none;fillColor=none;rounded=1;" vertex="1" parent="1">
          <mxGeometry x="275" y="97" width="27" height="26" as="geometry" />
        </mxCell>
        <mxCell id="YlkrvOhkguZ3ZTi_6gmJ-108" value="1" style="text;html=1;align=center;verticalAlign=middle;resizable=0;points=[];autosize=1;strokeColor=none;fillColor=none;rounded=1;" vertex="1" parent="1">
          <mxGeometry x="11" y="-204" width="25" height="26" as="geometry" />
        </mxCell>
        <mxCell id="YlkrvOhkguZ3ZTi_6gmJ-110" value="Take" style="shape=rhombus;perimeter=rhombusPerimeter;whiteSpace=wrap;html=1;align=center;rounded=1;" vertex="1" parent="1">
          <mxGeometry x="496" y="64" width="120" height="60" as="geometry" />
        </mxCell>
        <mxCell id="YlkrvOhkguZ3ZTi_6gmJ-111" value="" style="endArrow=none;html=1;rounded=1;entryX=0.5;entryY=0;entryDx=0;entryDy=0;exitX=0.5;exitY=1;exitDx=0;exitDy=0;" edge="1" parent="1" source="YlkrvOhkguZ3ZTi_6gmJ-33" target="YlkrvOhkguZ3ZTi_6gmJ-110">
          <mxGeometry relative="1" as="geometry">
            <mxPoint x="819" y="-267" as="sourcePoint" />
            <mxPoint x="918" y="-234" as="targetPoint" />
            <Array as="points">
              <mxPoint x="739" y="-128" />
            </Array>
          </mxGeometry>
        </mxCell>
        <mxCell id="YlkrvOhkguZ3ZTi_6gmJ-112" value="" style="endArrow=none;html=1;rounded=1;entryX=1;entryY=0.5;entryDx=0;entryDy=0;shape=link;exitX=0;exitY=0.5;exitDx=0;exitDy=0;" edge="1" parent="1" source="YlkrvOhkguZ3ZTi_6gmJ-110" target="YlkrvOhkguZ3ZTi_6gmJ-80">
          <mxGeometry relative="1" as="geometry">
            <mxPoint x="508" y="88" as="sourcePoint" />
            <mxPoint x="397" y="171" as="targetPoint" />
          </mxGeometry>
        </mxCell>
        <mxCell id="YlkrvOhkguZ3ZTi_6gmJ-113" value="N" style="text;html=1;align=center;verticalAlign=middle;resizable=0;points=[];autosize=1;strokeColor=none;fillColor=none;rounded=1;" vertex="1" parent="1">
          <mxGeometry x="401" y="93" width="27" height="26" as="geometry" />
        </mxCell>
        <mxCell id="YlkrvOhkguZ3ZTi_6gmJ-114" value="1" style="text;html=1;align=center;verticalAlign=middle;resizable=0;points=[];autosize=1;strokeColor=none;fillColor=none;rounded=1;" vertex="1" parent="1">
          <mxGeometry x="784" y="-216" width="25" height="26" as="geometry" />
        </mxCell>
        <mxCell id="h6o7NREkk5LcOdEzi0ZQ-3" value="Manage" style="shape=rhombus;perimeter=rhombusPerimeter;whiteSpace=wrap;html=1;align=center;rounded=1;" vertex="1" parent="1">
          <mxGeometry x="-210" y="-190" width="120" height="60" as="geometry" />
        </mxCell>
        <mxCell id="h6o7NREkk5LcOdEzi0ZQ-4" style="edgeStyle=orthogonalEdgeStyle;rounded=1;orthogonalLoop=1;jettySize=auto;html=1;exitX=0.5;exitY=0;exitDx=0;exitDy=0;entryX=0;entryY=0.5;entryDx=0;entryDy=0;shape=link;" edge="1" parent="1" source="h6o7NREkk5LcOdEzi0ZQ-3" target="YlkrvOhkguZ3ZTi_6gmJ-1">
          <mxGeometry relative="1" as="geometry" />
        </mxCell>
        <mxCell id="h6o7NREkk5LcOdEzi0ZQ-5" value="Medicine" style="rounded=1;arcSize=10;whiteSpace=wrap;html=1;align=center;" vertex="1" parent="1">
          <mxGeometry x="997" y="313.5" width="100" height="40" as="geometry" />
        </mxCell>
        <mxCell id="h6o7NREkk5LcOdEzi0ZQ-6" value="&lt;u&gt;MedicineId&lt;/u&gt;" style="ellipse;whiteSpace=wrap;html=1;align=center;rounded=1;" vertex="1" parent="1">
          <mxGeometry x="917.5" y="356.5" width="72" height="40" as="geometry" />
        </mxCell>
        <mxCell id="h6o7NREkk5LcOdEzi0ZQ-8" value="" style="endArrow=none;html=1;rounded=1;exitX=0.5;exitY=1;exitDx=0;exitDy=0;entryX=0.386;entryY=0.076;entryDx=0;entryDy=0;entryPerimeter=0;" edge="1" parent="1" source="h6o7NREkk5LcOdEzi0ZQ-5" target="h6o7NREkk5LcOdEzi0ZQ-17">
          <mxGeometry relative="1" as="geometry">
            <mxPoint x="897" y="304" as="sourcePoint" />
            <mxPoint x="659" y="579" as="targetPoint" />
            <Array as="points" />
          </mxGeometry>
        </mxCell>
        <mxCell id="h6o7NREkk5LcOdEzi0ZQ-10" value="Name" style="ellipse;whiteSpace=wrap;html=1;align=center;rounded=1;" vertex="1" parent="1">
          <mxGeometry x="880.5" y="394" width="62" height="40" as="geometry" />
        </mxCell>
        <mxCell id="h6o7NREkk5LcOdEzi0ZQ-11" value="Barcode" style="ellipse;whiteSpace=wrap;html=1;align=center;rounded=1;" vertex="1" parent="1">
          <mxGeometry x="977" y="431.5" width="63" height="40" as="geometry" />
        </mxCell>
        <mxCell id="h6o7NREkk5LcOdEzi0ZQ-12" value="BulkAllowed" style="ellipse;whiteSpace=wrap;html=1;align=center;rounded=1;" vertex="1" parent="1">
          <mxGeometry x="1163" y="400" width="81" height="40" as="geometry" />
        </mxCell>
        <mxCell id="h6o7NREkk5LcOdEzi0ZQ-17" value="Price" style="ellipse;whiteSpace=wrap;html=1;align=center;rounded=1;" vertex="1" parent="1">
          <mxGeometry x="915.5" y="429" width="60" height="40" as="geometry" />
        </mxCell>
        <mxCell id="h6o7NREkk5LcOdEzi0ZQ-18" value="&lt;br&gt;QuantityinStock&lt;div&gt;&lt;br/&gt;&lt;/div&gt;" style="ellipse;whiteSpace=wrap;html=1;align=center;rounded=1;" vertex="1" parent="1">
          <mxGeometry x="1184.25" y="360" width="88.5" height="40" as="geometry" />
        </mxCell>
        <mxCell id="YlkrvOhkguZ3ZTi_6gmJ-121" value="Contains" style="shape=rhombus;perimeter=rhombusPerimeter;whiteSpace=wrap;html=1;align=center;rounded=1;" vertex="1" parent="1">
          <mxGeometry x="420" y="230.5" width="120" height="60" as="geometry" />
        </mxCell>
        <mxCell id="h6o7NREkk5LcOdEzi0ZQ-23" value="" style="endArrow=none;html=1;rounded=1;entryX=0.5;entryY=0;entryDx=0;entryDy=0;exitX=0.5;exitY=1;exitDx=0;exitDy=0;" edge="1" parent="1" source="h6o7NREkk5LcOdEzi0ZQ-5" target="k2lacjBTQmWlSk6zZehX-63">
          <mxGeometry relative="1" as="geometry">
            <mxPoint x="1033" y="451" as="sourcePoint" />
            <mxPoint x="721" y="594" as="targetPoint" />
          </mxGeometry>
        </mxCell>
        <mxCell id="YlkrvOhkguZ3ZTi_6gmJ-122" value="" style="endArrow=none;html=1;rounded=1;entryX=0.5;entryY=1;entryDx=0;entryDy=0;exitX=0;exitY=0.5;exitDx=0;exitDy=0;" edge="1" parent="1" source="YlkrvOhkguZ3ZTi_6gmJ-121" target="YlkrvOhkguZ3ZTi_6gmJ-80">
          <mxGeometry relative="1" as="geometry">
            <mxPoint x="622" y="150" as="sourcePoint" />
            <mxPoint x="603.9999999999995" y="-136" as="targetPoint" />
            <Array as="points">
              <mxPoint x="374" y="218" />
            </Array>
          </mxGeometry>
        </mxCell>
        <mxCell id="h6o7NREkk5LcOdEzi0ZQ-21" value="" style="endArrow=none;html=1;rounded=1;entryX=0;entryY=1;entryDx=0;entryDy=0;exitX=0.5;exitY=1;exitDx=0;exitDy=0;" edge="1" parent="1" source="h6o7NREkk5LcOdEzi0ZQ-5" target="h6o7NREkk5LcOdEzi0ZQ-13">
          <mxGeometry relative="1" as="geometry">
            <mxPoint x="925" y="526" as="sourcePoint" />
            <mxPoint x="689" y="609" as="targetPoint" />
          </mxGeometry>
        </mxCell>
        <mxCell id="h6o7NREkk5LcOdEzi0ZQ-22" value="" style="endArrow=none;html=1;rounded=1;entryX=0;entryY=0.5;entryDx=0;entryDy=0;exitX=0.5;exitY=1;exitDx=0;exitDy=0;" edge="1" parent="1" source="h6o7NREkk5LcOdEzi0ZQ-5" target="YlkrvOhkguZ3ZTi_6gmJ-323">
          <mxGeometry relative="1" as="geometry">
            <mxPoint x="853" y="665" as="sourcePoint" />
            <mxPoint x="766" y="698" as="targetPoint" />
          </mxGeometry>
        </mxCell>
        <mxCell id="h6o7NREkk5LcOdEzi0ZQ-19" value="" style="endArrow=none;html=1;rounded=1;exitX=0.5;exitY=1;exitDx=0;exitDy=0;entryX=0.032;entryY=0.203;entryDx=0;entryDy=0;entryPerimeter=0;" edge="1" parent="1" source="h6o7NREkk5LcOdEzi0ZQ-5" target="h6o7NREkk5LcOdEzi0ZQ-12">
          <mxGeometry relative="1" as="geometry">
            <mxPoint x="1117" y="544" as="sourcePoint" />
            <mxPoint x="1153.9999999999982" y="408.5" as="targetPoint" />
          </mxGeometry>
        </mxCell>
        <mxCell id="h6o7NREkk5LcOdEzi0ZQ-25" value="" style="endArrow=none;html=1;rounded=1;exitX=0.5;exitY=1;exitDx=0;exitDy=0;entryX=1;entryY=0;entryDx=0;entryDy=0;" edge="1" parent="1" source="h6o7NREkk5LcOdEzi0ZQ-5" target="h6o7NREkk5LcOdEzi0ZQ-11">
          <mxGeometry relative="1" as="geometry">
            <mxPoint x="866" y="463" as="sourcePoint" />
            <mxPoint x="853" y="914" as="targetPoint" />
          </mxGeometry>
        </mxCell>
        <mxCell id="h6o7NREkk5LcOdEzi0ZQ-20" value="" style="endArrow=none;html=1;rounded=1;exitX=0.5;exitY=1;exitDx=0;exitDy=0;entryX=1;entryY=0.5;entryDx=0;entryDy=0;" edge="1" parent="1" source="h6o7NREkk5LcOdEzi0ZQ-5" target="h6o7NREkk5LcOdEzi0ZQ-10">
          <mxGeometry relative="1" as="geometry">
            <mxPoint x="929" y="500" as="sourcePoint" />
            <mxPoint x="693" y="583" as="targetPoint" />
            <Array as="points">
              <mxPoint x="985" y="393" />
            </Array>
          </mxGeometry>
        </mxCell>
        <mxCell id="h6o7NREkk5LcOdEzi0ZQ-26" value="" style="endArrow=none;html=1;rounded=1;entryX=1;entryY=0.5;entryDx=0;entryDy=0;exitX=0.5;exitY=1;exitDx=0;exitDy=0;" edge="1" parent="1" source="h6o7NREkk5LcOdEzi0ZQ-5" target="h6o7NREkk5LcOdEzi0ZQ-6">
          <mxGeometry relative="1" as="geometry">
            <mxPoint x="1047" y="374" as="sourcePoint" />
            <mxPoint x="587" y="887" as="targetPoint" />
            <Array as="points" />
          </mxGeometry>
        </mxCell>
        <mxCell id="YlkrvOhkguZ3ZTi_6gmJ-135" value="" style="endArrow=none;html=1;rounded=1;exitX=0.5;exitY=0;exitDx=0;exitDy=0;entryX=1;entryY=0.5;entryDx=0;entryDy=0;" edge="1" parent="1" source="h6o7NREkk5LcOdEzi0ZQ-5" target="YlkrvOhkguZ3ZTi_6gmJ-121">
          <mxGeometry width="50" height="50" relative="1" as="geometry">
            <mxPoint x="346" y="148" as="sourcePoint" />
            <mxPoint x="347" y="45" as="targetPoint" />
            <Array as="points">
              <mxPoint x="649" y="320" />
            </Array>
          </mxGeometry>
        </mxCell>
        <mxCell id="YlkrvOhkguZ3ZTi_6gmJ-138" value="1" style="text;html=1;align=center;verticalAlign=middle;resizable=0;points=[];autosize=1;strokeColor=none;fillColor=none;rounded=1;" vertex="1" parent="1">
          <mxGeometry x="-22" y="-196" width="25" height="26" as="geometry" />
        </mxCell>
        <mxCell id="YlkrvOhkguZ3ZTi_6gmJ-139" value="N" style="text;html=1;align=center;verticalAlign=middle;resizable=0;points=[];autosize=1;strokeColor=none;fillColor=none;rounded=1;" vertex="1" parent="1">
          <mxGeometry x="-51" y="-241" width="27" height="26" as="geometry" />
        </mxCell>
        <mxCell id="h6o7NREkk5LcOdEzi0ZQ-30" value="&lt;u&gt;PrescriptionId&amp;nbsp;&lt;/u&gt;" style="ellipse;whiteSpace=wrap;html=1;align=center;rounded=1;" vertex="1" parent="1">
          <mxGeometry x="221" y="-115" width="85" height="40" as="geometry" />
        </mxCell>
        <mxCell id="h6o7NREkk5LcOdEzi0ZQ-32" value="UploadDate" style="ellipse;whiteSpace=wrap;html=1;align=center;rounded=1;" vertex="1" parent="1">
          <mxGeometry x="308" y="-126" width="74" height="40" as="geometry" />
        </mxCell>
        <mxCell id="h6o7NREkk5LcOdEzi0ZQ-33" value="Status" style="ellipse;whiteSpace=wrap;html=1;align=center;rounded=1;" vertex="1" parent="1">
          <mxGeometry x="385.5" y="-115" width="58" height="40" as="geometry" />
        </mxCell>
        <mxCell id="YlkrvOhkguZ3ZTi_6gmJ-141" value="Review" style="shape=rhombus;perimeter=rhombusPerimeter;whiteSpace=wrap;html=1;align=center;rounded=1;" vertex="1" parent="1">
          <mxGeometry x="83" y="-86" width="120" height="60" as="geometry" />
        </mxCell>
        <mxCell id="h6o7NREkk5LcOdEzi0ZQ-35" value="prescription" style="shape=ext;margin=3;double=1;whiteSpace=wrap;html=1;align=center;rounded=1;" vertex="1" parent="1">
          <mxGeometry x="295" y="-57.5" width="100" height="40" as="geometry" />
        </mxCell>
        <mxCell id="YlkrvOhkguZ3ZTi_6gmJ-142" value="Upload" style="shape=rhombus;double=1;perimeter=rhombusPerimeter;whiteSpace=wrap;html=1;align=center;rounded=1;" vertex="1" parent="1">
          <mxGeometry x="492" y="-78.5" width="120" height="60" as="geometry" />
        </mxCell>
        <mxCell id="YlkrvOhkguZ3ZTi_6gmJ-143" value="" style="endArrow=none;html=1;rounded=1;entryX=0;entryY=0.5;entryDx=0;entryDy=0;exitX=0.5;exitY=1;exitDx=0;exitDy=0;" edge="1" parent="1" source="YlkrvOhkguZ3ZTi_6gmJ-1" target="YlkrvOhkguZ3ZTi_6gmJ-141">
          <mxGeometry width="50" height="50" relative="1" as="geometry">
            <mxPoint x="131" y="-305" as="sourcePoint" />
            <mxPoint x="181" y="-355" as="targetPoint" />
          </mxGeometry>
        </mxCell>
        <mxCell id="YlkrvOhkguZ3ZTi_6gmJ-144" value="" style="endArrow=none;html=1;rounded=1;shape=link;exitX=1;exitY=0.5;exitDx=0;exitDy=0;entryX=0;entryY=0.5;entryDx=0;entryDy=0;" edge="1" parent="1" source="YlkrvOhkguZ3ZTi_6gmJ-141" target="h6o7NREkk5LcOdEzi0ZQ-35">
          <mxGeometry width="50" height="50" relative="1" as="geometry">
            <mxPoint x="259" y="-73.5" as="sourcePoint" />
            <mxPoint x="345" y="-60.25" as="targetPoint" />
          </mxGeometry>
        </mxCell>
        <mxCell id="YlkrvOhkguZ3ZTi_6gmJ-145" value="" style="endArrow=none;html=1;rounded=1;entryX=0;entryY=0.5;entryDx=0;entryDy=0;shape=link;exitX=1;exitY=0.5;exitDx=0;exitDy=0;" edge="1" parent="1" source="h6o7NREkk5LcOdEzi0ZQ-35" target="YlkrvOhkguZ3ZTi_6gmJ-142">
          <mxGeometry width="50" height="50" relative="1" as="geometry">
            <mxPoint x="345" y="-60.25" as="sourcePoint" />
            <mxPoint x="417" y="-77.5" as="targetPoint" />
          </mxGeometry>
        </mxCell>
        <mxCell id="YlkrvOhkguZ3ZTi_6gmJ-147" value="" style="endArrow=none;html=1;rounded=1;entryX=0;entryY=0.75;entryDx=0;entryDy=0;exitX=1;exitY=0.5;exitDx=0;exitDy=0;" edge="1" parent="1" source="YlkrvOhkguZ3ZTi_6gmJ-142" target="YlkrvOhkguZ3ZTi_6gmJ-33">
          <mxGeometry width="50" height="50" relative="1" as="geometry">
            <mxPoint x="631" y="-524" as="sourcePoint" />
            <mxPoint x="721" y="-437" as="targetPoint" />
          </mxGeometry>
        </mxCell>
        <mxCell id="h6o7NREkk5LcOdEzi0ZQ-42" value="" style="endArrow=none;html=1;rounded=1;entryX=0.609;entryY=1.056;entryDx=0;entryDy=0;exitX=0.5;exitY=0;exitDx=0;exitDy=0;entryPerimeter=0;" edge="1" parent="1" source="h6o7NREkk5LcOdEzi0ZQ-35" target="h6o7NREkk5LcOdEzi0ZQ-30">
          <mxGeometry width="50" height="50" relative="1" as="geometry">
            <mxPoint x="295" y="-14.5" as="sourcePoint" />
            <mxPoint x="133" y="-134.5" as="targetPoint" />
          </mxGeometry>
        </mxCell>
        <mxCell id="YlkrvOhkguZ3ZTi_6gmJ-151" value="N" style="text;html=1;align=center;verticalAlign=middle;resizable=0;points=[];autosize=1;strokeColor=none;fillColor=none;rounded=1;" vertex="1" parent="1">
          <mxGeometry x="393" y="-61.5" width="27" height="26" as="geometry" />
        </mxCell>
        <mxCell id="h6o7NREkk5LcOdEzi0ZQ-44" value="N" style="text;html=1;align=center;verticalAlign=middle;resizable=0;points=[];autosize=1;strokeColor=none;fillColor=none;rounded=1;" vertex="1" parent="1">
          <mxGeometry x="269" y="-65" width="27" height="26" as="geometry" />
        </mxCell>
        <mxCell id="YlkrvOhkguZ3ZTi_6gmJ-153" value="Category" style="rounded=1;arcSize=10;whiteSpace=wrap;html=1;align=center;" vertex="1" parent="1">
          <mxGeometry x="1253.5" y="91" width="100" height="40" as="geometry" />
        </mxCell>
        <mxCell id="YlkrvOhkguZ3ZTi_6gmJ-160" value="into" style="shape=rhombus;perimeter=rhombusPerimeter;whiteSpace=wrap;html=1;align=center;rounded=1;" vertex="1" parent="1">
          <mxGeometry x="1210" y="164" width="120" height="60" as="geometry" />
        </mxCell>
        <mxCell id="YlkrvOhkguZ3ZTi_6gmJ-162" value="" style="endArrow=none;html=1;rounded=1;exitX=0.5;exitY=1;exitDx=0;exitDy=0;shape=link;entryX=1;entryY=0.5;entryDx=0;entryDy=0;" edge="1" parent="1" source="YlkrvOhkguZ3ZTi_6gmJ-160" target="h6o7NREkk5LcOdEzi0ZQ-5">
          <mxGeometry width="50" height="50" relative="1" as="geometry">
            <mxPoint x="1186.5" y="274" as="sourcePoint" />
            <mxPoint x="1012.5" y="253" as="targetPoint" />
          </mxGeometry>
        </mxCell>
        <mxCell id="YlkrvOhkguZ3ZTi_6gmJ-164" value="CategoryId" style="ellipse;whiteSpace=wrap;html=1;align=center;fontStyle=4;rounded=1;" vertex="1" parent="1">
          <mxGeometry x="1317" y="44" width="83" height="40" as="geometry" />
        </mxCell>
        <mxCell id="YlkrvOhkguZ3ZTi_6gmJ-167" value="" style="endArrow=none;html=1;rounded=1;entryX=0.5;entryY=0;entryDx=0;entryDy=0;" edge="1" parent="1" source="YlkrvOhkguZ3ZTi_6gmJ-164" target="YlkrvOhkguZ3ZTi_6gmJ-153">
          <mxGeometry width="50" height="50" relative="1" as="geometry">
            <mxPoint x="1335.5" y="198" as="sourcePoint" />
            <mxPoint x="1385.5" y="148" as="targetPoint" />
          </mxGeometry>
        </mxCell>
        <mxCell id="YlkrvOhkguZ3ZTi_6gmJ-168" value="" style="endArrow=none;html=1;rounded=1;exitX=0.5;exitY=0;exitDx=0;exitDy=0;entryX=0.5;entryY=1;entryDx=0;entryDy=0;" edge="1" parent="1" source="YlkrvOhkguZ3ZTi_6gmJ-153" target="YlkrvOhkguZ3ZTi_6gmJ-165">
          <mxGeometry width="50" height="50" relative="1" as="geometry">
            <mxPoint x="1303.5" y="184" as="sourcePoint" />
            <mxPoint x="1321" y="4" as="targetPoint" />
          </mxGeometry>
        </mxCell>
        <mxCell id="h6o7NREkk5LcOdEzi0ZQ-49" value="&lt;div&gt;&lt;u&gt;ReviewId&lt;/u&gt;&lt;/div&gt;" style="ellipse;whiteSpace=wrap;html=1;align=center;rounded=1;" vertex="1" parent="1">
          <mxGeometry x="1163" y="-288.25" width="100" height="40" as="geometry" />
        </mxCell>
        <mxCell id="h6o7NREkk5LcOdEzi0ZQ-51" value="&lt;div&gt;Rating&lt;/div&gt;" style="ellipse;whiteSpace=wrap;html=1;align=center;rounded=1;" vertex="1" parent="1">
          <mxGeometry x="1284" y="-285.5" width="100" height="38.5" as="geometry" />
        </mxCell>
        <mxCell id="h6o7NREkk5LcOdEzi0ZQ-52" value="&lt;div&gt;Comment&lt;/div&gt;" style="ellipse;whiteSpace=wrap;html=1;align=center;rounded=1;" vertex="1" parent="1">
          <mxGeometry x="1227" y="-325" width="100" height="40" as="geometry" />
        </mxCell>
        <mxCell id="YlkrvOhkguZ3ZTi_6gmJ-165" value="CategoryName" style="ellipse;whiteSpace=wrap;html=1;align=center;rounded=1;" vertex="1" parent="1">
          <mxGeometry x="1237" y="22.5" width="86" height="40" as="geometry" />
        </mxCell>
        <mxCell id="h6o7NREkk5LcOdEzi0ZQ-61" value="" style="endArrow=none;html=1;rounded=1;exitX=0;exitY=0.5;exitDx=0;exitDy=0;entryX=0.5;entryY=1;entryDx=0;entryDy=0;" edge="1" parent="1" source="YlkrvOhkguZ3ZTi_6gmJ-179" target="YlkrvOhkguZ3ZTi_6gmJ-33">
          <mxGeometry width="50" height="50" relative="1" as="geometry">
            <mxPoint x="832" y="-164" as="sourcePoint" />
            <mxPoint x="932" y="-43" as="targetPoint" />
          </mxGeometry>
        </mxCell>
        <mxCell id="h6o7NREkk5LcOdEzi0ZQ-64" value="" style="endArrow=none;html=1;rounded=1;exitX=0.5;exitY=0;exitDx=0;exitDy=0;entryX=0.5;entryY=0;entryDx=0;entryDy=0;" edge="1" parent="1" source="YlkrvOhkguZ3ZTi_6gmJ-179" target="h6o7NREkk5LcOdEzi0ZQ-65">
          <mxGeometry relative="1" as="geometry">
            <mxPoint x="968" y="-285" as="sourcePoint" />
            <mxPoint x="1161" y="-285" as="targetPoint" />
            <Array as="points">
              <mxPoint x="1110" y="-199" />
            </Array>
          </mxGeometry>
        </mxCell>
        <mxCell id="h6o7NREkk5LcOdEzi0ZQ-65" value="ReviewDate" style="ellipse;whiteSpace=wrap;html=1;align=center;rounded=1;" vertex="1" parent="1">
          <mxGeometry x="1060" y="-248" width="100" height="40" as="geometry" />
        </mxCell>
        <mxCell id="h6o7NREkk5LcOdEzi0ZQ-62" value="" style="endArrow=none;html=1;rounded=1;entryX=1;entryY=0.5;entryDx=0;entryDy=0;shape=link;exitX=0;exitY=0.5;exitDx=0;exitDy=0;" edge="1" parent="1" source="YlkrvOhkguZ3ZTi_6gmJ-178" target="YlkrvOhkguZ3ZTi_6gmJ-179">
          <mxGeometry width="50" height="50" relative="1" as="geometry">
            <mxPoint x="1214" y="-222" as="sourcePoint" />
            <mxPoint x="1163" y="-306" as="targetPoint" />
          </mxGeometry>
        </mxCell>
        <mxCell id="h6o7NREkk5LcOdEzi0ZQ-67" value="1" style="text;html=1;align=center;verticalAlign=middle;resizable=0;points=[];autosize=1;strokeColor=none;fillColor=none;rounded=1;" vertex="1" parent="1">
          <mxGeometry x="861.5" y="-204" width="25" height="26" as="geometry" />
        </mxCell>
        <mxCell id="YlkrvOhkguZ3ZTi_6gmJ-171" value="" style="endArrow=none;html=1;rounded=1;" edge="1" parent="1">
          <mxGeometry width="50" height="50" relative="1" as="geometry">
            <mxPoint x="8" y="-131" as="sourcePoint" />
            <mxPoint x="8.409999999999997" y="-200" as="targetPoint" />
          </mxGeometry>
        </mxCell>
        <mxCell id="YlkrvOhkguZ3ZTi_6gmJ-172" value="" style="endArrow=none;html=1;rounded=1;entryX=0.49;entryY=0.975;entryDx=0;entryDy=0;entryPerimeter=0;" edge="1" parent="1" target="h6o7NREkk5LcOdEzi0ZQ-3">
          <mxGeometry width="50" height="50" relative="1" as="geometry">
            <mxPoint x="8" y="-131" as="sourcePoint" />
            <mxPoint x="-60" y="-160" as="targetPoint" />
          </mxGeometry>
        </mxCell>
        <mxCell id="h6o7NREkk5LcOdEzi0ZQ-75" value="Related To" style="shape=rhombus;perimeter=rhombusPerimeter;whiteSpace=wrap;html=1;align=center;rounded=1;" vertex="1" parent="1">
          <mxGeometry x="1097" y="114" width="120" height="60" as="geometry" />
        </mxCell>
        <mxCell id="YlkrvOhkguZ3ZTi_6gmJ-176" value="" style="endArrow=none;html=1;rounded=1;exitX=0.972;exitY=0.519;exitDx=0;exitDy=0;entryX=0.5;entryY=1;entryDx=0;entryDy=0;exitPerimeter=0;" edge="1" parent="1" source="h6o7NREkk5LcOdEzi0ZQ-75" target="YlkrvOhkguZ3ZTi_6gmJ-178">
          <mxGeometry width="50" height="50" relative="1" as="geometry">
            <mxPoint x="896" y="140.5" as="sourcePoint" />
            <mxPoint x="948" y="94.5" as="targetPoint" />
            <Array as="points">
              <mxPoint x="1233" y="-12" />
            </Array>
          </mxGeometry>
        </mxCell>
        <mxCell id="YlkrvOhkguZ3ZTi_6gmJ-178" value="Review&amp;nbsp;&amp;nbsp;" style="shape=ext;margin=3;double=1;whiteSpace=wrap;html=1;align=center;rounded=1;" vertex="1" parent="1">
          <mxGeometry x="1235" y="-206.75" width="100" height="40" as="geometry" />
        </mxCell>
        <mxCell id="YlkrvOhkguZ3ZTi_6gmJ-179" value="Make" style="shape=rhombus;double=1;perimeter=rhombusPerimeter;whiteSpace=wrap;html=1;align=center;rounded=1;" vertex="1" parent="1">
          <mxGeometry x="1050" y="-199" width="120" height="60" as="geometry" />
        </mxCell>
        <mxCell id="YlkrvOhkguZ3ZTi_6gmJ-199" value="Payment" style="whiteSpace=wrap;html=1;align=center;rounded=1;" vertex="1" parent="1">
          <mxGeometry x="-95" y="79.5" width="100" height="40" as="geometry" />
        </mxCell>
        <mxCell id="YlkrvOhkguZ3ZTi_6gmJ-205" value="Inventory" style="whiteSpace=wrap;html=1;align=center;rounded=1;" vertex="1" parent="1">
          <mxGeometry x="483" y="356.5" width="100" height="40" as="geometry" />
        </mxCell>
        <mxCell id="YlkrvOhkguZ3ZTi_6gmJ-208" value="QuantityStock" style="ellipse;whiteSpace=wrap;html=1;align=center;rounded=1;" vertex="1" parent="1">
          <mxGeometry x="485.5" y="418.5" width="103" height="45" as="geometry" />
        </mxCell>
        <mxCell id="YlkrvOhkguZ3ZTi_6gmJ-209" value="&lt;u&gt;InventoryId&lt;/u&gt;" style="ellipse;whiteSpace=wrap;html=1;align=center;rounded=1;" vertex="1" parent="1">
          <mxGeometry x="613.5" y="410.5" width="100" height="40" as="geometry" />
        </mxCell>
        <mxCell id="YlkrvOhkguZ3ZTi_6gmJ-211" value="InventoryLocation" style="ellipse;whiteSpace=wrap;html=1;align=center;rounded=1;" vertex="1" parent="1">
          <mxGeometry x="355.5" y="410.5" width="108" height="45" as="geometry" />
        </mxCell>
        <mxCell id="h6o7NREkk5LcOdEzi0ZQ-79" value="Status" style="ellipse;whiteSpace=wrap;html=1;align=center;rounded=1;" vertex="1" parent="1">
          <mxGeometry x="-210" y="124" width="100" height="40" as="geometry" />
        </mxCell>
        <mxCell id="h6o7NREkk5LcOdEzi0ZQ-81" value="PaymentType" style="ellipse;whiteSpace=wrap;html=1;align=center;rounded=1;" vertex="1" parent="1">
          <mxGeometry x="-216" y="79.5" width="100" height="40" as="geometry" />
        </mxCell>
        <mxCell id="h6o7NREkk5LcOdEzi0ZQ-82" value="&lt;u&gt;PaymentId&amp;nbsp;&lt;/u&gt;" style="ellipse;whiteSpace=wrap;html=1;align=center;rounded=1;" vertex="1" parent="1">
          <mxGeometry x="-185" y="13" width="100" height="40" as="geometry" />
        </mxCell>
        <mxCell id="YlkrvOhkguZ3ZTi_6gmJ-218" value="" style="endArrow=none;html=1;rounded=1;exitX=0;exitY=0;exitDx=0;exitDy=0;entryX=0.5;entryY=1;entryDx=0;entryDy=0;" edge="1" parent="1" source="YlkrvOhkguZ3ZTi_6gmJ-209" target="YlkrvOhkguZ3ZTi_6gmJ-205">
          <mxGeometry width="50" height="50" relative="1" as="geometry">
            <mxPoint x="650" y="493.5" as="sourcePoint" />
            <mxPoint x="700" y="443.5" as="targetPoint" />
            <Array as="points" />
          </mxGeometry>
        </mxCell>
        <mxCell id="YlkrvOhkguZ3ZTi_6gmJ-219" value="" style="endArrow=none;html=1;rounded=1;exitX=1;exitY=0;exitDx=0;exitDy=0;entryX=0.5;entryY=1;entryDx=0;entryDy=0;" edge="1" parent="1" source="YlkrvOhkguZ3ZTi_6gmJ-211" target="YlkrvOhkguZ3ZTi_6gmJ-205">
          <mxGeometry width="50" height="50" relative="1" as="geometry">
            <mxPoint x="671" y="491.5" as="sourcePoint" />
            <mxPoint x="483" y="380.5" as="targetPoint" />
          </mxGeometry>
        </mxCell>
        <mxCell id="h6o7NREkk5LcOdEzi0ZQ-87" value="" style="endArrow=none;html=1;rounded=1;exitX=0.5;exitY=0;exitDx=0;exitDy=0;entryX=0.5;entryY=1;entryDx=0;entryDy=0;" edge="1" parent="1" source="YlkrvOhkguZ3ZTi_6gmJ-208" target="YlkrvOhkguZ3ZTi_6gmJ-205">
          <mxGeometry width="50" height="50" relative="1" as="geometry">
            <mxPoint x="710" y="501.5" as="sourcePoint" />
            <mxPoint x="762" y="455.5" as="targetPoint" />
          </mxGeometry>
        </mxCell>
        <mxCell id="YlkrvOhkguZ3ZTi_6gmJ-221" value="" style="endArrow=none;html=1;rounded=1;exitX=0.5;exitY=0;exitDx=0;exitDy=0;entryX=0.5;entryY=1;entryDx=0;entryDy=0;" edge="1" parent="1" source="h6o7NREkk5LcOdEzi0ZQ-5" target="h6o7NREkk5LcOdEzi0ZQ-75">
          <mxGeometry width="50" height="50" relative="1" as="geometry">
            <mxPoint x="325" y="156" as="sourcePoint" />
            <mxPoint x="375" y="106" as="targetPoint" />
            <Array as="points">
              <mxPoint x="1131" y="238" />
            </Array>
          </mxGeometry>
        </mxCell>
        <mxCell id="YlkrvOhkguZ3ZTi_6gmJ-223" value="N" style="text;html=1;align=center;verticalAlign=middle;resizable=0;points=[];autosize=1;strokeColor=none;fillColor=none;rounded=1;" vertex="1" parent="1">
          <mxGeometry x="1210" y="-189" width="27" height="26" as="geometry" />
        </mxCell>
        <mxCell id="YlkrvOhkguZ3ZTi_6gmJ-224" value="Has" style="shape=rhombus;perimeter=rhombusPerimeter;whiteSpace=wrap;html=1;align=center;rounded=1;" vertex="1" parent="1">
          <mxGeometry x="725" y="353.5" width="120" height="60" as="geometry" />
        </mxCell>
        <mxCell id="h6o7NREkk5LcOdEzi0ZQ-100" value="N" style="text;html=1;align=center;verticalAlign=middle;resizable=0;points=[];autosize=1;strokeColor=none;fillColor=none;rounded=1;arcSize=0;" vertex="1" parent="1">
          <mxGeometry x="353.5" y="143" width="27" height="26" as="geometry" />
        </mxCell>
        <mxCell id="YlkrvOhkguZ3ZTi_6gmJ-260" value="" style="endArrow=none;html=1;rounded=1;entryX=0.5;entryY=1;entryDx=0;entryDy=0;exitX=0.5;exitY=0;exitDx=0;exitDy=0;" edge="1" parent="1" source="YlkrvOhkguZ3ZTi_6gmJ-178" target="h6o7NREkk5LcOdEzi0ZQ-52">
          <mxGeometry width="50" height="50" relative="1" as="geometry">
            <mxPoint x="1343.2" y="-253" as="sourcePoint" />
            <mxPoint x="1197.5000000000002" y="-279.3499999999999" as="targetPoint" />
          </mxGeometry>
        </mxCell>
        <mxCell id="YlkrvOhkguZ3ZTi_6gmJ-262" value="" style="endArrow=none;html=1;rounded=1;entryX=0.5;entryY=1;entryDx=0;entryDy=0;exitX=0.5;exitY=0;exitDx=0;exitDy=0;" edge="1" parent="1" source="YlkrvOhkguZ3ZTi_6gmJ-178" target="h6o7NREkk5LcOdEzi0ZQ-49">
          <mxGeometry width="50" height="50" relative="1" as="geometry">
            <mxPoint x="1343.2" y="-253" as="sourcePoint" />
            <mxPoint x="1230" y="-224.75" as="targetPoint" />
          </mxGeometry>
        </mxCell>
        <mxCell id="YlkrvOhkguZ3ZTi_6gmJ-263" value="" style="endArrow=none;html=1;rounded=1;entryX=0.5;entryY=1;entryDx=0;entryDy=0;exitX=0.5;exitY=0;exitDx=0;exitDy=0;" edge="1" parent="1" source="YlkrvOhkguZ3ZTi_6gmJ-178" target="h6o7NREkk5LcOdEzi0ZQ-51">
          <mxGeometry width="50" height="50" relative="1" as="geometry">
            <mxPoint x="1343.2" y="-253" as="sourcePoint" />
            <mxPoint x="1358.2" y="-215" as="targetPoint" />
          </mxGeometry>
        </mxCell>
        <mxCell id="YlkrvOhkguZ3ZTi_6gmJ-266" value="PaysFor" style="shape=rhombus;perimeter=rhombusPerimeter;whiteSpace=wrap;html=1;align=center;rounded=1;" vertex="1" parent="1">
          <mxGeometry x="89" y="143" width="120" height="60" as="geometry" />
        </mxCell>
        <mxCell id="YlkrvOhkguZ3ZTi_6gmJ-271" value="" style="endArrow=none;html=1;rounded=1;entryX=0.5;entryY=0;entryDx=0;entryDy=0;exitX=0;exitY=0.5;exitDx=0;exitDy=0;" edge="1" parent="1" source="YlkrvOhkguZ3ZTi_6gmJ-224" target="YlkrvOhkguZ3ZTi_6gmJ-205">
          <mxGeometry relative="1" as="geometry">
            <mxPoint x="678.5000000000005" y="333" as="sourcePoint" />
            <mxPoint x="648.5" y="394" as="targetPoint" />
            <Array as="points">
              <mxPoint x="622" y="338" />
            </Array>
          </mxGeometry>
        </mxCell>
        <mxCell id="YlkrvOhkguZ3ZTi_6gmJ-275" value="1" style="text;html=1;align=center;verticalAlign=middle;resizable=0;points=[];autosize=1;strokeColor=none;fillColor=none;rounded=1;" vertex="1" parent="1">
          <mxGeometry x="281" y="131.5" width="25" height="26" as="geometry" />
        </mxCell>
        <mxCell id="YlkrvOhkguZ3ZTi_6gmJ-277" value="" style="endArrow=none;html=1;rounded=1;exitX=0;exitY=0.5;exitDx=0;exitDy=0;" edge="1" parent="1" source="YlkrvOhkguZ3ZTi_6gmJ-199" target="h6o7NREkk5LcOdEzi0ZQ-82">
          <mxGeometry width="50" height="50" relative="1" as="geometry">
            <mxPoint x="54" y="111.5" as="sourcePoint" />
            <mxPoint x="163" y="155.5" as="targetPoint" />
          </mxGeometry>
        </mxCell>
        <mxCell id="YlkrvOhkguZ3ZTi_6gmJ-278" value="" style="endArrow=none;html=1;rounded=1;exitX=0;exitY=0.5;exitDx=0;exitDy=0;entryX=1;entryY=0.5;entryDx=0;entryDy=0;" edge="1" parent="1" source="YlkrvOhkguZ3ZTi_6gmJ-199" target="h6o7NREkk5LcOdEzi0ZQ-81">
          <mxGeometry width="50" height="50" relative="1" as="geometry">
            <mxPoint x="62" y="133.5" as="sourcePoint" />
            <mxPoint x="109" y="118.5" as="targetPoint" />
          </mxGeometry>
        </mxCell>
        <mxCell id="YlkrvOhkguZ3ZTi_6gmJ-280" value="" style="endArrow=none;html=1;rounded=1;exitX=0;exitY=0.75;exitDx=0;exitDy=0;entryX=1;entryY=0.5;entryDx=0;entryDy=0;" edge="1" parent="1" source="YlkrvOhkguZ3ZTi_6gmJ-199" target="h6o7NREkk5LcOdEzi0ZQ-79">
          <mxGeometry width="50" height="50" relative="1" as="geometry">
            <mxPoint x="54" y="133.5" as="sourcePoint" />
            <mxPoint x="100" y="208.5" as="targetPoint" />
          </mxGeometry>
        </mxCell>
        <mxCell id="h6o7NREkk5LcOdEzi0ZQ-102" value="Notification" style="whiteSpace=wrap;html=1;align=center;rounded=1;" vertex="1" parent="1">
          <mxGeometry x="73" y="377" width="100" height="40" as="geometry" />
        </mxCell>
        <mxCell id="h6o7NREkk5LcOdEzi0ZQ-105" value="content" style="ellipse;whiteSpace=wrap;html=1;align=center;rounded=1;" vertex="1" parent="1">
          <mxGeometry x="-35" y="421" width="100" height="40" as="geometry" />
        </mxCell>
        <mxCell id="h6o7NREkk5LcOdEzi0ZQ-106" value="NotificationType" style="ellipse;whiteSpace=wrap;html=1;align=center;rounded=1;" vertex="1" parent="1">
          <mxGeometry x="-95" y="386" width="100" height="40" as="geometry" />
        </mxCell>
        <mxCell id="YlkrvOhkguZ3ZTi_6gmJ-304" style="edgeStyle=orthogonalEdgeStyle;rounded=1;orthogonalLoop=1;jettySize=auto;html=1;exitX=0.5;exitY=1;exitDx=0;exitDy=0;" edge="1" parent="1">
          <mxGeometry relative="1" as="geometry">
            <mxPoint x="1119.5" y="533" as="sourcePoint" />
            <mxPoint x="1119.5" y="533" as="targetPoint" />
          </mxGeometry>
        </mxCell>
        <mxCell id="h6o7NREkk5LcOdEzi0ZQ-118" value="" style="endArrow=none;html=1;rounded=1;exitX=1;exitY=0.5;exitDx=0;exitDy=0;entryX=0.5;entryY=0;entryDx=0;entryDy=0;" edge="1" parent="1" source="h6o7NREkk5LcOdEzi0ZQ-119" target="YlkrvOhkguZ3ZTi_6gmJ-205">
          <mxGeometry width="50" height="50" relative="1" as="geometry">
            <mxPoint x="327" y="534" as="sourcePoint" />
            <mxPoint x="377" y="484" as="targetPoint" />
            <Array as="points">
              <mxPoint x="466" y="334" />
            </Array>
          </mxGeometry>
        </mxCell>
        <mxCell id="h6o7NREkk5LcOdEzi0ZQ-120" value="" style="endArrow=none;html=1;rounded=1;exitX=1;exitY=0.5;exitDx=0;exitDy=0;entryX=0;entryY=0.5;entryDx=0;entryDy=0;" edge="1" parent="1" source="h6o7NREkk5LcOdEzi0ZQ-102" target="h6o7NREkk5LcOdEzi0ZQ-119">
          <mxGeometry width="50" height="50" relative="1" as="geometry">
            <mxPoint x="303" y="621" as="sourcePoint" />
            <mxPoint x="282" y="357" as="targetPoint" />
          </mxGeometry>
        </mxCell>
        <mxCell id="h6o7NREkk5LcOdEzi0ZQ-119" value="Alert" style="shape=rhombus;perimeter=rhombusPerimeter;whiteSpace=wrap;html=1;align=center;rounded=1;" vertex="1" parent="1">
          <mxGeometry x="281" y="330.5" width="120" height="60" as="geometry" />
        </mxCell>
        <mxCell id="h6o7NREkk5LcOdEzi0ZQ-124" value="" style="endArrow=none;html=1;rounded=1;exitX=0.5;exitY=0;exitDx=0;exitDy=0;entryX=0.5;entryY=1;entryDx=0;entryDy=0;" edge="1" parent="1" source="h6o7NREkk5LcOdEzi0ZQ-102" target="h6o7NREkk5LcOdEzi0ZQ-125">
          <mxGeometry width="50" height="50" relative="1" as="geometry">
            <mxPoint x="240" y="228" as="sourcePoint" />
            <mxPoint x="-37" y="-13" as="targetPoint" />
            <Array as="points" />
          </mxGeometry>
        </mxCell>
        <mxCell id="h6o7NREkk5LcOdEzi0ZQ-125" value="GeneratedFor" style="shape=rhombus;perimeter=rhombusPerimeter;whiteSpace=wrap;html=1;align=center;rounded=1;" vertex="1" parent="1">
          <mxGeometry x="-52" y="230.5" width="120" height="60" as="geometry" />
        </mxCell>
        <mxCell id="YlkrvOhkguZ3ZTi_6gmJ-312" value="RelatedTo" style="shape=rhombus;perimeter=rhombusPerimeter;whiteSpace=wrap;html=1;align=center;rounded=1;" vertex="1" parent="1">
          <mxGeometry x="171" y="225" width="120" height="60" as="geometry" />
        </mxCell>
        <mxCell id="YlkrvOhkguZ3ZTi_6gmJ-318" value="" style="endArrow=none;html=1;rounded=1;entryX=0.5;entryY=0;entryDx=0;entryDy=0;exitX=0.5;exitY=1;exitDx=0;exitDy=0;" edge="1" parent="1" source="YlkrvOhkguZ3ZTi_6gmJ-80" target="YlkrvOhkguZ3ZTi_6gmJ-312">
          <mxGeometry width="50" height="50" relative="1" as="geometry">
            <mxPoint x="447.5" y="-38.99999999999977" as="sourcePoint" />
            <mxPoint x="333" y="176" as="targetPoint" />
            <Array as="points">
              <mxPoint x="284" y="180" />
            </Array>
          </mxGeometry>
        </mxCell>
        <mxCell id="YlkrvOhkguZ3ZTi_6gmJ-321" value="TotalPrice" style="ellipse;whiteSpace=wrap;html=1;align=center;dashed=1;rounded=1;" vertex="1" parent="1">
          <mxGeometry x="401" y="32" width="100" height="40" as="geometry" />
        </mxCell>
        <mxCell id="YlkrvOhkguZ3ZTi_6gmJ-323" value="&lt;div&gt;Expirydate&lt;/div&gt;" style="ellipse;whiteSpace=wrap;html=1;align=center;dashed=1;rounded=1;" vertex="1" parent="1">
          <mxGeometry x="1112" y="431.5" width="70" height="40" as="geometry" />
        </mxCell>
        <mxCell id="YlkrvOhkguZ3ZTi_6gmJ-324" value="CustomerAge" style="ellipse;whiteSpace=wrap;html=1;align=center;dashed=1;rounded=1;" vertex="1" parent="1">
          <mxGeometry x="967" y="-339" width="100" height="40" as="geometry" />
        </mxCell>
        <mxCell id="h6o7NREkk5LcOdEzi0ZQ-140" value="1" style="text;html=1;align=center;verticalAlign=middle;resizable=0;points=[];autosize=1;strokeColor=none;fillColor=none;rounded=1;" vertex="1" parent="1">
          <mxGeometry x="311" y="152" width="25" height="26" as="geometry" />
        </mxCell>
        <mxCell id="vE5YDYaZgn3CEjm0NGHA-1" value="Price" style="ellipse;whiteSpace=wrap;html=1;align=center;rounded=1;" vertex="1" parent="1">
          <mxGeometry x="498" y="188.5" width="66" height="28" as="geometry" />
        </mxCell>
        <mxCell id="vE5YDYaZgn3CEjm0NGHA-3" value="" style="endArrow=none;html=1;rounded=1;exitX=0.386;exitY=0.95;exitDx=0;exitDy=0;entryX=0.5;entryY=0;entryDx=0;entryDy=0;exitPerimeter=0;" edge="1" parent="1" source="vE5YDYaZgn3CEjm0NGHA-1" target="YlkrvOhkguZ3ZTi_6gmJ-121">
          <mxGeometry width="50" height="50" relative="1" as="geometry">
            <mxPoint x="84" y="127.5" as="sourcePoint" />
            <mxPoint x="134" y="77.5" as="targetPoint" />
          </mxGeometry>
        </mxCell>
        <mxCell id="vE5YDYaZgn3CEjm0NGHA-5" value="ShoppingCart" style="rounded=1;arcSize=10;whiteSpace=wrap;html=1;align=center;" vertex="1" parent="1">
          <mxGeometry x="736.75" y="-17.5" width="100" height="40" as="geometry" />
        </mxCell>
        <mxCell id="vE5YDYaZgn3CEjm0NGHA-6" value="CartId" style="ellipse;whiteSpace=wrap;html=1;align=center;fontStyle=4;rounded=1;" vertex="1" parent="1">
          <mxGeometry x="659" y="7" width="65" height="40" as="geometry" />
        </mxCell>
        <mxCell id="vE5YDYaZgn3CEjm0NGHA-7" value="CreatedAt" style="ellipse;whiteSpace=wrap;html=1;align=center;rounded=1;" vertex="1" parent="1">
          <mxGeometry x="659" y="-43.5" width="65.5" height="40" as="geometry" />
        </mxCell>
        <mxCell id="vE5YDYaZgn3CEjm0NGHA-8" value="" style="endArrow=none;html=1;rounded=1;entryX=0;entryY=0.5;entryDx=0;entryDy=0;exitX=1;exitY=0.5;exitDx=0;exitDy=0;" edge="1" parent="1" source="vE5YDYaZgn3CEjm0NGHA-6" target="vE5YDYaZgn3CEjm0NGHA-5">
          <mxGeometry width="50" height="50" relative="1" as="geometry">
            <mxPoint x="733.75" y="122.5" as="sourcePoint" />
            <mxPoint x="783.75" y="72.5" as="targetPoint" />
          </mxGeometry>
        </mxCell>
        <mxCell id="vE5YDYaZgn3CEjm0NGHA-9" value="" style="endArrow=none;html=1;rounded=1;entryX=0;entryY=0.5;entryDx=0;entryDy=0;exitX=1;exitY=0.5;exitDx=0;exitDy=0;" edge="1" parent="1" source="vE5YDYaZgn3CEjm0NGHA-7" target="vE5YDYaZgn3CEjm0NGHA-5">
          <mxGeometry width="50" height="50" relative="1" as="geometry">
            <mxPoint x="717.75" y="94.5" as="sourcePoint" />
            <mxPoint x="767.75" y="44.5" as="targetPoint" />
          </mxGeometry>
        </mxCell>
        <mxCell id="vE5YDYaZgn3CEjm0NGHA-10" value="Has" style="shape=rhombus;perimeter=rhombusPerimeter;whiteSpace=wrap;html=1;align=center;rounded=1;" vertex="1" parent="1">
          <mxGeometry x="741.5" y="-152.25" width="120" height="60" as="geometry" />
        </mxCell>
        <mxCell id="vE5YDYaZgn3CEjm0NGHA-11" value="" style="endArrow=none;html=1;rounded=1;exitX=0.5;exitY=0;exitDx=0;exitDy=0;entryX=0.5;entryY=1;entryDx=0;entryDy=0;" edge="1" parent="1" source="vE5YDYaZgn3CEjm0NGHA-10" target="YlkrvOhkguZ3ZTi_6gmJ-33">
          <mxGeometry width="50" height="50" relative="1" as="geometry">
            <mxPoint x="926" y="-181" as="sourcePoint" />
            <mxPoint x="807" y="-236" as="targetPoint" />
          </mxGeometry>
        </mxCell>
        <mxCell id="vE5YDYaZgn3CEjm0NGHA-12" value="" style="endArrow=none;html=1;rounded=1;exitX=0.5;exitY=0;exitDx=0;exitDy=0;entryX=0.5;entryY=1;entryDx=0;entryDy=0;" edge="1" parent="1" source="vE5YDYaZgn3CEjm0NGHA-5" target="vE5YDYaZgn3CEjm0NGHA-10">
          <mxGeometry width="50" height="50" relative="1" as="geometry">
            <mxPoint x="850" y="-5" as="sourcePoint" />
            <mxPoint x="840" y="-114" as="targetPoint" />
          </mxGeometry>
        </mxCell>
        <mxCell id="vE5YDYaZgn3CEjm0NGHA-14" value="CartItems&amp;nbsp;" style="shape=rhombus;perimeter=rhombusPerimeter;whiteSpace=wrap;html=1;align=center;rounded=1;" vertex="1" parent="1">
          <mxGeometry x="649.5" y="180" width="120" height="60" as="geometry" />
        </mxCell>
        <mxCell id="vE5YDYaZgn3CEjm0NGHA-16" value="" style="endArrow=none;html=1;rounded=1;entryX=0.5;entryY=1;entryDx=0;entryDy=0;exitX=0.5;exitY=0;exitDx=0;exitDy=0;" edge="1" parent="1" source="h6o7NREkk5LcOdEzi0ZQ-5" target="vE5YDYaZgn3CEjm0NGHA-14">
          <mxGeometry relative="1" as="geometry">
            <mxPoint x="314" y="188" as="sourcePoint" />
            <mxPoint x="482" y="189" as="targetPoint" />
            <Array as="points">
              <mxPoint x="808" y="284" />
            </Array>
          </mxGeometry>
        </mxCell>
        <mxCell id="vE5YDYaZgn3CEjm0NGHA-25" value="" style="endArrow=none;html=1;rounded=1;exitX=0.5;exitY=1;exitDx=0;exitDy=0;entryX=0;entryY=0.5;entryDx=0;entryDy=0;" edge="1" parent="1" source="YlkrvOhkguZ3ZTi_6gmJ-199" target="YlkrvOhkguZ3ZTi_6gmJ-266">
          <mxGeometry width="50" height="50" relative="1" as="geometry">
            <mxPoint x="-26" y="-72" as="sourcePoint" />
            <mxPoint x="24" y="-122" as="targetPoint" />
          </mxGeometry>
        </mxCell>
        <mxCell id="vE5YDYaZgn3CEjm0NGHA-26" value="" style="endArrow=none;html=1;rounded=1;exitX=0.5;exitY=1;exitDx=0;exitDy=0;entryX=1;entryY=0.5;entryDx=0;entryDy=0;" edge="1" parent="1" source="YlkrvOhkguZ3ZTi_6gmJ-80" target="YlkrvOhkguZ3ZTi_6gmJ-266">
          <mxGeometry width="50" height="50" relative="1" as="geometry">
            <mxPoint x="114" y="-93" as="sourcePoint" />
            <mxPoint x="335" y="-86" as="targetPoint" />
          </mxGeometry>
        </mxCell>
        <mxCell id="vE5YDYaZgn3CEjm0NGHA-30" value="" style="endArrow=none;html=1;rounded=1;entryX=0.5;entryY=1;entryDx=0;entryDy=0;exitX=0.5;exitY=0;exitDx=0;exitDy=0;" edge="1" parent="1" source="vE5YDYaZgn3CEjm0NGHA-14" target="vE5YDYaZgn3CEjm0NGHA-5">
          <mxGeometry width="50" height="50" relative="1" as="geometry">
            <mxPoint x="793" y="80" as="sourcePoint" />
            <mxPoint x="843" y="30" as="targetPoint" />
            <Array as="points">
              <mxPoint x="715" y="103" />
            </Array>
          </mxGeometry>
        </mxCell>
        <mxCell id="vE5YDYaZgn3CEjm0NGHA-38" value="" style="endArrow=none;html=1;rounded=1;exitX=0;exitY=0.5;exitDx=0;exitDy=0;entryX=1;entryY=0.5;entryDx=0;entryDy=0;" edge="1" parent="1" source="h6o7NREkk5LcOdEzi0ZQ-5" target="YlkrvOhkguZ3ZTi_6gmJ-224">
          <mxGeometry relative="1" as="geometry">
            <mxPoint x="747" y="313" as="sourcePoint" />
            <mxPoint x="775" y="280" as="targetPoint" />
            <Array as="points">
              <mxPoint x="882" y="360" />
            </Array>
          </mxGeometry>
        </mxCell>
        <mxCell id="vE5YDYaZgn3CEjm0NGHA-40" value="Purchase" style="rounded=1;arcSize=10;whiteSpace=wrap;html=1;align=center;" vertex="1" parent="1">
          <mxGeometry x="977" y="-12" width="100" height="40" as="geometry" />
        </mxCell>
        <mxCell id="vE5YDYaZgn3CEjm0NGHA-44" value="" style="endArrow=none;html=1;rounded=1;exitX=0.5;exitY=0;exitDx=0;exitDy=0;entryX=0.59;entryY=1.025;entryDx=0;entryDy=0;entryPerimeter=0;" edge="1" parent="1" source="YlkrvOhkguZ3ZTi_6gmJ-160" target="YlkrvOhkguZ3ZTi_6gmJ-153">
          <mxGeometry width="50" height="50" relative="1" as="geometry">
            <mxPoint x="1188" y="289" as="sourcePoint" />
            <mxPoint x="1238" y="239" as="targetPoint" />
          </mxGeometry>
        </mxCell>
        <mxCell id="vE5YDYaZgn3CEjm0NGHA-49" value="Contains" style="shape=rhombus;perimeter=rhombusPerimeter;whiteSpace=wrap;html=1;align=center;rounded=1;" vertex="1" parent="1">
          <mxGeometry x="960" y="108" width="120" height="60" as="geometry" />
        </mxCell>
        <mxCell id="vE5YDYaZgn3CEjm0NGHA-53" value="Supply" style="shape=rhombus;perimeter=rhombusPerimeter;whiteSpace=wrap;html=1;align=center;rounded=1;" vertex="1" parent="1">
          <mxGeometry x="888" y="-152.25" width="120" height="60" as="geometry" />
        </mxCell>
        <mxCell id="vE5YDYaZgn3CEjm0NGHA-54" value="" style="endArrow=none;html=1;rounded=1;entryX=0.5;entryY=1;entryDx=0;entryDy=0;exitX=0.5;exitY=0;exitDx=0;exitDy=0;" edge="1" parent="1" source="vE5YDYaZgn3CEjm0NGHA-53" target="YlkrvOhkguZ3ZTi_6gmJ-33">
          <mxGeometry width="50" height="50" relative="1" as="geometry">
            <mxPoint x="-14" y="257" as="sourcePoint" />
            <mxPoint x="33" y="137" as="targetPoint" />
          </mxGeometry>
        </mxCell>
        <mxCell id="vE5YDYaZgn3CEjm0NGHA-56" value="" style="shape=link;html=1;rounded=1;exitX=0.5;exitY=1;exitDx=0;exitDy=0;entryX=0.5;entryY=0;entryDx=0;entryDy=0;" edge="1" parent="1" source="vE5YDYaZgn3CEjm0NGHA-53" target="vE5YDYaZgn3CEjm0NGHA-40">
          <mxGeometry relative="1" as="geometry">
            <mxPoint x="20" y="337" as="sourcePoint" />
            <mxPoint x="180" y="337" as="targetPoint" />
          </mxGeometry>
        </mxCell>
        <mxCell id="vE5YDYaZgn3CEjm0NGHA-70" value="" style="shape=link;html=1;rounded=1;exitX=0.5;exitY=1;exitDx=0;exitDy=0;entryX=0.5;entryY=0;entryDx=0;entryDy=0;" edge="1" parent="1" source="vE5YDYaZgn3CEjm0NGHA-40" target="vE5YDYaZgn3CEjm0NGHA-49">
          <mxGeometry relative="1" as="geometry">
            <mxPoint x="149" y="411" as="sourcePoint" />
            <mxPoint x="219" y="505" as="targetPoint" />
            <Array as="points">
              <mxPoint x="1036" y="34" />
            </Array>
          </mxGeometry>
        </mxCell>
        <mxCell id="vE5YDYaZgn3CEjm0NGHA-71" value="" style="shape=link;html=1;rounded=1;exitX=0.5;exitY=1;exitDx=0;exitDy=0;entryX=0.5;entryY=0;entryDx=0;entryDy=0;" edge="1" parent="1" source="vE5YDYaZgn3CEjm0NGHA-49" target="h6o7NREkk5LcOdEzi0ZQ-5">
          <mxGeometry relative="1" as="geometry">
            <mxPoint x="381" y="458" as="sourcePoint" />
            <mxPoint x="785" y="298" as="targetPoint" />
            <Array as="points">
              <mxPoint x="1011" y="202" />
            </Array>
          </mxGeometry>
        </mxCell>
        <mxCell id="vE5YDYaZgn3CEjm0NGHA-78" value="1" style="text;html=1;align=center;verticalAlign=middle;resizable=0;points=[];autosize=1;strokeColor=none;fillColor=none;rounded=1;" vertex="1" parent="1">
          <mxGeometry x="544" y="330.5" width="25" height="26" as="geometry" />
        </mxCell>
        <mxCell id="vE5YDYaZgn3CEjm0NGHA-81" value="1" style="text;html=1;align=center;verticalAlign=middle;resizable=0;points=[];autosize=1;strokeColor=none;fillColor=none;rounded=1;" vertex="1" parent="1">
          <mxGeometry x="493" y="330.5" width="25" height="26" as="geometry" />
        </mxCell>
        <mxCell id="vE5YDYaZgn3CEjm0NGHA-87" value="" style="endArrow=none;html=1;rounded=1;exitX=0.5;exitY=1;exitDx=0;exitDy=0;entryX=0.5;entryY=0;entryDx=0;entryDy=0;" edge="1" parent="1" source="YlkrvOhkguZ3ZTi_6gmJ-199" target="h6o7NREkk5LcOdEzi0ZQ-125">
          <mxGeometry width="50" height="50" relative="1" as="geometry">
            <mxPoint x="196" y="146" as="sourcePoint" />
            <mxPoint x="246" y="96" as="targetPoint" />
          </mxGeometry>
        </mxCell>
        <mxCell id="vE5YDYaZgn3CEjm0NGHA-120" value="Quantity" style="ellipse;whiteSpace=wrap;html=1;align=center;rounded=1;" vertex="1" parent="1">
          <mxGeometry x="427" y="183.5" width="65" height="30" as="geometry" />
        </mxCell>
        <mxCell id="vE5YDYaZgn3CEjm0NGHA-121" value="" style="endArrow=none;html=1;rounded=1;exitX=0.5;exitY=1;exitDx=0;exitDy=0;entryX=0.5;entryY=0;entryDx=0;entryDy=0;" edge="1" parent="1" source="vE5YDYaZgn3CEjm0NGHA-120" target="YlkrvOhkguZ3ZTi_6gmJ-121">
          <mxGeometry width="50" height="50" relative="1" as="geometry">
            <mxPoint x="477" y="228.5" as="sourcePoint" />
            <mxPoint x="527" y="178.5" as="targetPoint" />
          </mxGeometry>
        </mxCell>
        <mxCell id="k-QJ3cULIfFd8rDCMGmY-67" value="&lt;div&gt;&lt;u&gt;PurchaseId&lt;/u&gt;&lt;/div&gt;" style="ellipse;whiteSpace=wrap;html=1;align=center;rounded=1;" vertex="1" parent="1">
          <mxGeometry x="1076" y="-92.25" width="100" height="40" as="geometry" />
        </mxCell>
        <mxCell id="k-QJ3cULIfFd8rDCMGmY-70" value="&lt;div&gt;InvoiceNumber&lt;/div&gt;" style="ellipse;whiteSpace=wrap;html=1;align=center;rounded=1;" vertex="1" parent="1">
          <mxGeometry x="1107" y="7" width="100" height="40" as="geometry" />
        </mxCell>
        <mxCell id="k-QJ3cULIfFd8rDCMGmY-71" value="&lt;div&gt;PaymentStatus&lt;/div&gt;" style="ellipse;whiteSpace=wrap;html=1;align=center;rounded=1;" vertex="1" parent="1">
          <mxGeometry x="1117" y="-41.5" width="100" height="38.5" as="geometry" />
        </mxCell>
        <mxCell id="k-QJ3cULIfFd8rDCMGmY-72" value="" style="endArrow=none;html=1;rounded=1;exitX=1;exitY=0.5;exitDx=0;exitDy=0;entryX=0.5;entryY=1;entryDx=0;entryDy=0;" edge="1" parent="1" source="vE5YDYaZgn3CEjm0NGHA-40" target="k-QJ3cULIfFd8rDCMGmY-67">
          <mxGeometry width="50" height="50" relative="1" as="geometry">
            <mxPoint x="1017" y="109" as="sourcePoint" />
            <mxPoint x="1067" y="59" as="targetPoint" />
          </mxGeometry>
        </mxCell>
        <mxCell id="k-QJ3cULIfFd8rDCMGmY-73" value="" style="endArrow=none;html=1;rounded=1;exitX=1;exitY=0.5;exitDx=0;exitDy=0;entryX=0;entryY=0.5;entryDx=0;entryDy=0;" edge="1" parent="1" source="vE5YDYaZgn3CEjm0NGHA-40" target="k-QJ3cULIfFd8rDCMGmY-71">
          <mxGeometry width="50" height="50" relative="1" as="geometry">
            <mxPoint x="1005" y="88" as="sourcePoint" />
            <mxPoint x="1055" y="38" as="targetPoint" />
          </mxGeometry>
        </mxCell>
        <mxCell id="k-QJ3cULIfFd8rDCMGmY-74" value="" style="endArrow=none;html=1;rounded=1;exitX=1;exitY=0.5;exitDx=0;exitDy=0;entryX=0;entryY=0.5;entryDx=0;entryDy=0;" edge="1" parent="1" source="vE5YDYaZgn3CEjm0NGHA-40" target="k-QJ3cULIfFd8rDCMGmY-70">
          <mxGeometry width="50" height="50" relative="1" as="geometry">
            <mxPoint x="1003" y="116" as="sourcePoint" />
            <mxPoint x="1053" y="66" as="targetPoint" />
          </mxGeometry>
        </mxCell>
        <mxCell id="k-QJ3cULIfFd8rDCMGmY-77" value="UnitCost" style="ellipse;whiteSpace=wrap;html=1;align=center;rounded=1;" vertex="1" parent="1">
          <mxGeometry x="818" y="72.5" width="100" height="40" as="geometry" />
        </mxCell>
        <mxCell id="k-QJ3cULIfFd8rDCMGmY-79" value="QuantityPurchased" style="ellipse;whiteSpace=wrap;html=1;align=center;rounded=1;" vertex="1" parent="1">
          <mxGeometry x="892" y="39.5" width="107" height="43" as="geometry" />
        </mxCell>
        <mxCell id="k-QJ3cULIfFd8rDCMGmY-80" value="TotalCost" style="ellipse;whiteSpace=wrap;html=1;align=center;dashed=1;rounded=1;" vertex="1" parent="1">
          <mxGeometry x="835" y="160" width="100" height="40" as="geometry" />
        </mxCell>
        <mxCell id="k-QJ3cULIfFd8rDCMGmY-82" value="ExpiryDate" style="ellipse;whiteSpace=wrap;html=1;align=center;rounded=1;" vertex="1" parent="1">
          <mxGeometry x="817.5" y="115.5" width="100" height="40" as="geometry" />
        </mxCell>
        <mxCell id="k-QJ3cULIfFd8rDCMGmY-85" value="" style="endArrow=none;html=1;rounded=1;exitX=0.5;exitY=1;exitDx=0;exitDy=0;entryX=0.05;entryY=0.522;entryDx=0;entryDy=0;entryPerimeter=0;" edge="1" parent="1" source="k-QJ3cULIfFd8rDCMGmY-79" target="vE5YDYaZgn3CEjm0NGHA-49">
          <mxGeometry width="50" height="50" relative="1" as="geometry">
            <mxPoint x="693" y="600" as="sourcePoint" />
            <mxPoint x="743" y="550" as="targetPoint" />
          </mxGeometry>
        </mxCell>
        <mxCell id="k-QJ3cULIfFd8rDCMGmY-86" value="" style="endArrow=none;html=1;rounded=1;exitX=1;exitY=0.5;exitDx=0;exitDy=0;entryX=0.044;entryY=0.5;entryDx=0;entryDy=0;entryPerimeter=0;" edge="1" parent="1" source="k-QJ3cULIfFd8rDCMGmY-77" target="vE5YDYaZgn3CEjm0NGHA-49">
          <mxGeometry width="50" height="50" relative="1" as="geometry">
            <mxPoint x="668" y="577" as="sourcePoint" />
            <mxPoint x="718" y="527" as="targetPoint" />
          </mxGeometry>
        </mxCell>
        <mxCell id="k-QJ3cULIfFd8rDCMGmY-87" value="" style="endArrow=none;html=1;rounded=1;exitX=0.044;exitY=0.5;exitDx=0;exitDy=0;entryX=1;entryY=0;entryDx=0;entryDy=0;exitPerimeter=0;" edge="1" parent="1" source="vE5YDYaZgn3CEjm0NGHA-49" target="k-QJ3cULIfFd8rDCMGmY-80">
          <mxGeometry width="50" height="50" relative="1" as="geometry">
            <mxPoint x="723" y="577" as="sourcePoint" />
            <mxPoint x="773" y="527" as="targetPoint" />
          </mxGeometry>
        </mxCell>
        <mxCell id="k-QJ3cULIfFd8rDCMGmY-88" value="" style="endArrow=none;html=1;rounded=1;exitX=0.036;exitY=0.511;exitDx=0;exitDy=0;entryX=1;entryY=0.5;entryDx=0;entryDy=0;exitPerimeter=0;" edge="1" parent="1" source="vE5YDYaZgn3CEjm0NGHA-49" target="k-QJ3cULIfFd8rDCMGmY-82">
          <mxGeometry width="50" height="50" relative="1" as="geometry">
            <mxPoint x="741" y="627" as="sourcePoint" />
            <mxPoint x="791" y="577" as="targetPoint" />
          </mxGeometry>
        </mxCell>
        <mxCell id="k-QJ3cULIfFd8rDCMGmY-93" value="Address" style="ellipse;shape=doubleEllipse;margin=3;whiteSpace=wrap;html=1;align=center;rounded=1;" vertex="1" parent="1">
          <mxGeometry x="471.5" y="-254.5" width="68.5" height="45" as="geometry" />
        </mxCell>
        <mxCell id="k-QJ3cULIfFd8rDCMGmY-96" value="1" style="text;html=1;align=center;verticalAlign=middle;resizable=0;points=[];autosize=1;strokeColor=none;fillColor=none;rounded=1;" vertex="1" parent="1">
          <mxGeometry x="836.5" y="-204" width="25" height="26" as="geometry" />
        </mxCell>
        <mxCell id="k-QJ3cULIfFd8rDCMGmY-97" value="N" style="text;html=1;align=center;verticalAlign=middle;resizable=0;points=[];autosize=1;strokeColor=none;fillColor=none;rounded=1;" vertex="1" parent="1">
          <mxGeometry x="1023" y="-35.5" width="27" height="26" as="geometry" />
        </mxCell>
        <mxCell id="rekGrC8ViMQPVciabv41-1" value="" style="endArrow=none;html=1;rounded=1;entryX=0.5;entryY=0;entryDx=0;entryDy=0;exitX=0.5;exitY=1;exitDx=0;exitDy=0;" edge="1" parent="1" source="YlkrvOhkguZ3ZTi_6gmJ-312" target="h6o7NREkk5LcOdEzi0ZQ-102">
          <mxGeometry width="50" height="50" relative="1" as="geometry">
            <mxPoint x="432" y="14" as="sourcePoint" />
            <mxPoint x="284" y="94" as="targetPoint" />
            <Array as="points">
              <mxPoint x="198" y="323" />
            </Array>
          </mxGeometry>
        </mxCell>
        <mxCell id="h6o7NREkk5LcOdEzi0ZQ-107" value="&lt;u&gt;NotificationId&lt;/u&gt;" style="ellipse;whiteSpace=wrap;html=1;align=center;rounded=1;" vertex="1" parent="1">
          <mxGeometry x="-90" y="344" width="100" height="40" as="geometry" />
        </mxCell>
        <mxCell id="k-QJ3cULIfFd8rDCMGmY-100" value="1" style="text;html=1;align=center;verticalAlign=middle;resizable=0;points=[];autosize=1;strokeColor=none;fillColor=none;rounded=1;" vertex="1" parent="1">
          <mxGeometry x="820" y="-216" width="25" height="26" as="geometry" />
        </mxCell>
        <mxCell id="k-QJ3cULIfFd8rDCMGmY-102" value="1" style="text;html=1;align=center;verticalAlign=middle;resizable=0;points=[];autosize=1;strokeColor=none;fillColor=none;rounded=1;" vertex="1" parent="1">
          <mxGeometry x="769.5" y="-38" width="25" height="26" as="geometry" />
        </mxCell>
        <mxCell id="9nWZfqF7PrIRn4tDt7an-1" value="N" style="text;html=1;align=center;verticalAlign=middle;resizable=0;points=[];autosize=1;strokeColor=none;fillColor=none;fontSize=16;rounded=1;" vertex="1" parent="1">
          <mxGeometry x="755" y="21" width="30" height="31" as="geometry" />
        </mxCell>
        <mxCell id="9nWZfqF7PrIRn4tDt7an-2" value="N" style="text;html=1;align=center;verticalAlign=middle;resizable=0;points=[];autosize=1;strokeColor=none;fillColor=none;fontSize=16;rounded=1;" vertex="1" parent="1">
          <mxGeometry x="965" y="282.5" width="30" height="31" as="geometry" />
        </mxCell>
        <mxCell id="9nWZfqF7PrIRn4tDt7an-7" value="1" style="text;html=1;align=center;verticalAlign=middle;resizable=0;points=[];autosize=1;strokeColor=none;fillColor=none;fontSize=16;rotation=0;" vertex="1" parent="1">
          <mxGeometry x="1067" y="270.5" width="27" height="31" as="geometry" />
        </mxCell>
        <mxCell id="9nWZfqF7PrIRn4tDt7an-9" value="N" style="text;html=1;align=center;verticalAlign=middle;resizable=0;points=[];autosize=1;strokeColor=none;fillColor=none;fontSize=16;" vertex="1" parent="1">
          <mxGeometry x="1292.7" y="131" width="30" height="31" as="geometry" />
        </mxCell>
        <mxCell id="9nWZfqF7PrIRn4tDt7an-13" value="N" style="text;html=1;align=center;verticalAlign=middle;resizable=0;points=[];autosize=1;strokeColor=none;fillColor=none;fontSize=16;" vertex="1" parent="1">
          <mxGeometry x="906" y="292.5" width="29" height="31" as="geometry" />
        </mxCell>
        <mxCell id="9nWZfqF7PrIRn4tDt7an-20" value="N" style="text;html=1;align=center;verticalAlign=middle;resizable=0;points=[];autosize=1;strokeColor=none;fillColor=none;fontSize=16;" vertex="1" parent="1">
          <mxGeometry x="1101" y="318" width="29" height="31" as="geometry" />
        </mxCell>
        <mxCell id="1NBUcCMh7FvBShh18mpw-7" value="N" style="text;html=1;align=center;verticalAlign=middle;resizable=0;points=[];autosize=1;strokeColor=none;fillColor=none;fontSize=16;" vertex="1" parent="1">
          <mxGeometry x="1014" y="261.5" width="29" height="31" as="geometry" />
        </mxCell>
        <mxCell id="1NBUcCMh7FvBShh18mpw-11" value="N" style="text;html=1;align=center;verticalAlign=middle;resizable=0;points=[];autosize=1;strokeColor=none;fillColor=none;fontSize=16;rounded=1;" vertex="1" parent="1">
          <mxGeometry x="1034" y="28" width="30" height="31" as="geometry" />
        </mxCell>
        <mxCell id="1NBUcCMh7FvBShh18mpw-13" value="N" style="text;html=1;align=center;verticalAlign=middle;resizable=0;points=[];autosize=1;strokeColor=none;fillColor=none;rounded=1;" vertex="1" parent="1">
          <mxGeometry x="1280" y="-170" width="27" height="26" as="geometry" />
        </mxCell>
        <mxCell id="1NBUcCMh7FvBShh18mpw-15" value="1" style="text;html=1;align=center;verticalAlign=middle;resizable=0;points=[];autosize=1;strokeColor=none;fillColor=none;rounded=1;" vertex="1" parent="1">
          <mxGeometry x="-71" y="119.5" width="25" height="26" as="geometry" />
        </mxCell>
        <mxCell id="1NBUcCMh7FvBShh18mpw-17" value="1" style="text;html=1;align=center;verticalAlign=middle;resizable=0;points=[];autosize=1;strokeColor=none;fillColor=none;rounded=1;" vertex="1" parent="1">
          <mxGeometry x="-9" y="112.5" width="25" height="26" as="geometry" />
        </mxCell>
        <mxCell id="1NBUcCMh7FvBShh18mpw-19" value="N" style="text;html=1;align=center;verticalAlign=middle;resizable=0;points=[];autosize=1;strokeColor=none;fillColor=none;rounded=1;arcSize=0;" vertex="1" parent="1">
          <mxGeometry x="98" y="344" width="27" height="26" as="geometry" />
        </mxCell>
        <mxCell id="1NBUcCMh7FvBShh18mpw-20" value="N" style="text;html=1;align=center;verticalAlign=middle;resizable=0;points=[];autosize=1;strokeColor=none;fillColor=none;rounded=1;arcSize=0;" vertex="1" parent="1">
          <mxGeometry x="136" y="340" width="27" height="26" as="geometry" />
        </mxCell>
        <mxCell id="1NBUcCMh7FvBShh18mpw-21" value="N" style="text;html=1;align=center;verticalAlign=middle;resizable=0;points=[];autosize=1;strokeColor=none;fillColor=none;rounded=1;arcSize=0;" vertex="1" parent="1">
          <mxGeometry x="177" y="377" width="27" height="26" as="geometry" />
        </mxCell>
        <mxCell id="1NBUcCMh7FvBShh18mpw-24" value="" style="endArrow=none;html=1;rounded=0;entryX=0;entryY=0.5;entryDx=0;entryDy=0;exitX=1;exitY=0.5;exitDx=0;exitDy=0;" edge="1" parent="1" source="h6o7NREkk5LcOdEzi0ZQ-107" target="h6o7NREkk5LcOdEzi0ZQ-102">
          <mxGeometry width="50" height="50" relative="1" as="geometry">
            <mxPoint x="-9" y="444" as="sourcePoint" />
            <mxPoint x="41" y="394" as="targetPoint" />
          </mxGeometry>
        </mxCell>
        <mxCell id="1NBUcCMh7FvBShh18mpw-25" value="" style="endArrow=none;html=1;rounded=0;entryX=0;entryY=0.5;entryDx=0;entryDy=0;exitX=1;exitY=0.5;exitDx=0;exitDy=0;" edge="1" parent="1" source="h6o7NREkk5LcOdEzi0ZQ-106" target="h6o7NREkk5LcOdEzi0ZQ-102">
          <mxGeometry width="50" height="50" relative="1" as="geometry">
            <mxPoint x="-9" y="435" as="sourcePoint" />
            <mxPoint x="83" y="427" as="targetPoint" />
          </mxGeometry>
        </mxCell>
        <mxCell id="1NBUcCMh7FvBShh18mpw-26" value="" style="endArrow=none;html=1;rounded=0;entryX=0;entryY=0.5;entryDx=0;entryDy=0;exitX=0.5;exitY=0;exitDx=0;exitDy=0;" edge="1" parent="1" source="h6o7NREkk5LcOdEzi0ZQ-105" target="h6o7NREkk5LcOdEzi0ZQ-102">
          <mxGeometry width="50" height="50" relative="1" as="geometry">
            <mxPoint y="475" as="sourcePoint" />
            <mxPoint x="83" y="427" as="targetPoint" />
          </mxGeometry>
        </mxCell>
        <mxCell id="1NBUcCMh7FvBShh18mpw-32" value="N" style="text;html=1;align=center;verticalAlign=middle;resizable=0;points=[];autosize=1;strokeColor=none;fillColor=none;fontSize=16;" vertex="1" parent="1">
          <mxGeometry x="927" y="318" width="29" height="31" as="geometry" />
        </mxCell>
        <mxCell id="1NBUcCMh7FvBShh18mpw-33" value="InventoryId" style="ellipse;whiteSpace=wrap;html=1;align=center;rounded=1;" vertex="1" parent="1">
          <mxGeometry x="888" y="200" width="100" height="40" as="geometry" />
        </mxCell>
        <mxCell id="1NBUcCMh7FvBShh18mpw-34" value="" style="endArrow=none;html=1;rounded=1;exitX=0.05;exitY=0.533;exitDx=0;exitDy=0;entryX=0.5;entryY=0;entryDx=0;entryDy=0;exitPerimeter=0;" edge="1" parent="1" source="vE5YDYaZgn3CEjm0NGHA-49" target="1NBUcCMh7FvBShh18mpw-33">
          <mxGeometry width="50" height="50" relative="1" as="geometry">
            <mxPoint x="945" y="144" as="sourcePoint" />
            <mxPoint x="988" y="154" as="targetPoint" />
          </mxGeometry>
        </mxCell>
        <mxCell id="CGa-SedKmjcSmWojBplO-1" value="" style="endArrow=none;html=1;rounded=0;exitX=1;exitY=0;exitDx=0;exitDy=0;entryX=0;entryY=1;entryDx=0;entryDy=0;" edge="1" parent="1" source="YlkrvOhkguZ3ZTi_6gmJ-33" target="YlkrvOhkguZ3ZTi_6gmJ-324">
          <mxGeometry width="50" height="50" relative="1" as="geometry">
            <mxPoint x="826" y="-304" as="sourcePoint" />
            <mxPoint x="876" y="-354" as="targetPoint" />
          </mxGeometry>
        </mxCell>
        <mxCell id="CGa-SedKmjcSmWojBplO-2" value="" style="endArrow=none;html=1;rounded=0;exitX=0.5;exitY=1;exitDx=0;exitDy=0;entryX=0.5;entryY=0;entryDx=0;entryDy=0;" edge="1" parent="1" source="h6o7NREkk5LcOdEzi0ZQ-32" target="h6o7NREkk5LcOdEzi0ZQ-35">
          <mxGeometry width="50" height="50" relative="1" as="geometry">
            <mxPoint x="306" y="-213.25" as="sourcePoint" />
            <mxPoint x="426" y="-289.25" as="targetPoint" />
          </mxGeometry>
        </mxCell>
        <mxCell id="CGa-SedKmjcSmWojBplO-3" value="BaseEntity" style="whiteSpace=wrap;html=1;align=center;rounded=1;" vertex="1" parent="1">
          <mxGeometry x="343.5" y="-203" width="100" height="40" as="geometry" />
        </mxCell>
        <mxCell id="CGa-SedKmjcSmWojBplO-4" value="IsA" style="shape=rhombus;perimeter=rhombusPerimeter;whiteSpace=wrap;html=1;align=center;" vertex="1" parent="1">
          <mxGeometry x="140" y="-196" width="120" height="60" as="geometry" />
        </mxCell>
        <mxCell id="CGa-SedKmjcSmWojBplO-5" value="IsA" style="shape=rhombus;perimeter=rhombusPerimeter;whiteSpace=wrap;html=1;align=center;" vertex="1" parent="1">
          <mxGeometry x="544.5" y="-199" width="120" height="60" as="geometry" />
        </mxCell>
        <mxCell id="CGa-SedKmjcSmWojBplO-6" value="" style="endArrow=none;html=1;rounded=0;entryX=0;entryY=0.5;entryDx=0;entryDy=0;exitX=1;exitY=0.5;exitDx=0;exitDy=0;" edge="1" parent="1" source="CGa-SedKmjcSmWojBplO-4" target="CGa-SedKmjcSmWojBplO-3">
          <mxGeometry width="50" height="50" relative="1" as="geometry">
            <mxPoint x="212" y="-92.75" as="sourcePoint" />
            <mxPoint x="262" y="-142.75" as="targetPoint" />
          </mxGeometry>
        </mxCell>
        <mxCell id="CGa-SedKmjcSmWojBplO-7" value="" style="endArrow=none;html=1;rounded=0;entryX=0;entryY=0.5;entryDx=0;entryDy=0;exitX=1;exitY=0.5;exitDx=0;exitDy=0;" edge="1" parent="1" source="YlkrvOhkguZ3ZTi_6gmJ-1" target="CGa-SedKmjcSmWojBplO-4">
          <mxGeometry width="50" height="50" relative="1" as="geometry">
            <mxPoint x="63.5" y="-316" as="sourcePoint" />
            <mxPoint x="198.5" y="-378" as="targetPoint" />
          </mxGeometry>
        </mxCell>
        <mxCell id="CGa-SedKmjcSmWojBplO-8" value="" style="endArrow=none;html=1;rounded=0;entryX=0;entryY=0.5;entryDx=0;entryDy=0;exitX=1;exitY=0.5;exitDx=0;exitDy=0;" edge="1" parent="1" source="CGa-SedKmjcSmWojBplO-3" target="CGa-SedKmjcSmWojBplO-5">
          <mxGeometry width="50" height="50" relative="1" as="geometry">
            <mxPoint x="231" y="-118.75" as="sourcePoint" />
            <mxPoint x="366" y="-180.75" as="targetPoint" />
          </mxGeometry>
        </mxCell>
        <mxCell id="CGa-SedKmjcSmWojBplO-9" value="" style="endArrow=none;html=1;rounded=0;entryX=0;entryY=0.75;entryDx=0;entryDy=0;exitX=1;exitY=0.5;exitDx=0;exitDy=0;" edge="1" parent="1" source="CGa-SedKmjcSmWojBplO-5" target="YlkrvOhkguZ3ZTi_6gmJ-33">
          <mxGeometry width="50" height="50" relative="1" as="geometry">
            <mxPoint x="722" y="-410.25" as="sourcePoint" />
            <mxPoint x="854" y="-348.25" as="targetPoint" />
          </mxGeometry>
        </mxCell>
        <mxCell id="CGa-SedKmjcSmWojBplO-12" value="IsVendor" style="ellipse;whiteSpace=wrap;html=1;align=center;rounded=1;" vertex="1" parent="1">
          <mxGeometry x="861.5" y="-339" width="100" height="40" as="geometry" />
        </mxCell>
        <mxCell id="CGa-SedKmjcSmWojBplO-15" value="" style="endArrow=none;html=1;rounded=0;exitX=1;exitY=0;exitDx=0;exitDy=0;entryX=0.5;entryY=1;entryDx=0;entryDy=0;" edge="1" parent="1" source="YlkrvOhkguZ3ZTi_6gmJ-33" target="CGa-SedKmjcSmWojBplO-12">
          <mxGeometry width="50" height="50" relative="1" as="geometry">
            <mxPoint x="919" y="-242" as="sourcePoint" />
            <mxPoint x="972" y="-279" as="targetPoint" />
          </mxGeometry>
        </mxCell>
        <mxCell id="Mwhwpvnq4t_ndw8tO-Bd-1" value="BirthDate" style="ellipse;whiteSpace=wrap;html=1;align=center;rounded=1;" vertex="1" parent="1">
          <mxGeometry x="950" y="-285" width="100" height="40" as="geometry" />
        </mxCell>
        <mxCell id="Mwhwpvnq4t_ndw8tO-Bd-2" value="" style="endArrow=none;html=1;rounded=0;exitX=1;exitY=0;exitDx=0;exitDy=0;entryX=0;entryY=0.5;entryDx=0;entryDy=0;" edge="1" parent="1" source="YlkrvOhkguZ3ZTi_6gmJ-33" target="Mwhwpvnq4t_ndw8tO-Bd-1">
          <mxGeometry width="50" height="50" relative="1" as="geometry">
            <mxPoint x="939" y="-213" as="sourcePoint" />
            <mxPoint x="989" y="-263" as="targetPoint" />
          </mxGeometry>
        </mxCell>
        <mxCell id="k2lacjBTQmWlSk6zZehX-1" value="Chat" style="whiteSpace=wrap;html=1;align=center;rounded=1;" vertex="1" parent="1">
          <mxGeometry x="353.5" y="-428" width="100" height="40" as="geometry" />
        </mxCell>
        <mxCell id="k2lacjBTQmWlSk6zZehX-2" value="Message" style="whiteSpace=wrap;html=1;align=center;rounded=1;" vertex="1" parent="1">
          <mxGeometry x="354.5" y="-592" width="100" height="40" as="geometry" />
        </mxCell>
        <mxCell id="k2lacjBTQmWlSk6zZehX-7" value="1" style="text;html=1;align=center;verticalAlign=middle;resizable=0;points=[];autosize=1;strokeColor=none;fillColor=none;" vertex="1" parent="1">
          <mxGeometry x="806" y="-272" width="25" height="26" as="geometry" />
        </mxCell>
        <mxCell id="k2lacjBTQmWlSk6zZehX-10" value="1" style="text;html=1;align=center;verticalAlign=middle;resizable=0;points=[];autosize=1;strokeColor=none;fillColor=none;" vertex="1" parent="1">
          <mxGeometry x="400" y="-447" width="25" height="26" as="geometry" />
        </mxCell>
        <mxCell id="k2lacjBTQmWlSk6zZehX-11" value="1" style="text;html=1;align=center;verticalAlign=middle;resizable=0;points=[];autosize=1;strokeColor=none;fillColor=none;" vertex="1" parent="1">
          <mxGeometry x="1719.5" y="-1225" width="25" height="26" as="geometry" />
        </mxCell>
        <mxCell id="k2lacjBTQmWlSk6zZehX-12" value="N" style="text;html=1;align=center;verticalAlign=middle;resizable=0;points=[];autosize=1;strokeColor=none;fillColor=none;rounded=1;" vertex="1" parent="1">
          <mxGeometry x="429.5" y="-557" width="27" height="26" as="geometry" />
        </mxCell>
        <mxCell id="k2lacjBTQmWlSk6zZehX-17" value="N" style="text;html=1;align=center;verticalAlign=middle;resizable=0;points=[];autosize=1;strokeColor=none;fillColor=none;" vertex="1" parent="1">
          <mxGeometry x="-14" y="-262.25" width="27" height="26" as="geometry" />
        </mxCell>
        <mxCell id="k2lacjBTQmWlSk6zZehX-19" value="N" style="text;html=1;align=center;verticalAlign=middle;resizable=0;points=[];autosize=1;strokeColor=none;fillColor=none;" vertex="1" parent="1">
          <mxGeometry x="327.5" y="-407" width="27" height="26" as="geometry" />
        </mxCell>
        <mxCell id="k2lacjBTQmWlSk6zZehX-33" value="Has" style="shape=rhombus;perimeter=rhombusPerimeter;whiteSpace=wrap;html=1;align=center;" vertex="1" parent="1">
          <mxGeometry x="621.5" y="-388" width="120" height="60" as="geometry" />
        </mxCell>
        <mxCell id="k2lacjBTQmWlSk6zZehX-34" value="Access" style="shape=rhombus;perimeter=rhombusPerimeter;whiteSpace=wrap;html=1;align=center;" vertex="1" parent="1">
          <mxGeometry x="105" y="-383" width="120" height="60" as="geometry" />
        </mxCell>
        <mxCell id="k2lacjBTQmWlSk6zZehX-35" value="" style="endArrow=none;html=1;rounded=0;exitX=0.5;exitY=0;exitDx=0;exitDy=0;entryX=0.5;entryY=1;entryDx=0;entryDy=0;" edge="1" parent="1" source="YlkrvOhkguZ3ZTi_6gmJ-1" target="k2lacjBTQmWlSk6zZehX-34">
          <mxGeometry width="50" height="50" relative="1" as="geometry">
            <mxPoint x="105" y="-236" as="sourcePoint" />
            <mxPoint x="155" y="-286" as="targetPoint" />
          </mxGeometry>
        </mxCell>
        <mxCell id="k2lacjBTQmWlSk6zZehX-36" value="" style="endArrow=none;html=1;rounded=0;exitX=0.5;exitY=0;exitDx=0;exitDy=0;entryX=0;entryY=0.5;entryDx=0;entryDy=0;shape=link;" edge="1" parent="1" source="k2lacjBTQmWlSk6zZehX-34" target="k2lacjBTQmWlSk6zZehX-1">
          <mxGeometry width="50" height="50" relative="1" as="geometry">
            <mxPoint x="46" y="-229" as="sourcePoint" />
            <mxPoint x="130" y="-426" as="targetPoint" />
          </mxGeometry>
        </mxCell>
        <mxCell id="k2lacjBTQmWlSk6zZehX-37" value="" style="endArrow=none;html=1;rounded=0;exitX=0.5;exitY=0;exitDx=0;exitDy=0;entryX=0.5;entryY=1;entryDx=0;entryDy=0;shape=link;" edge="1" parent="1" source="YlkrvOhkguZ3ZTi_6gmJ-33" target="k2lacjBTQmWlSk6zZehX-33">
          <mxGeometry width="50" height="50" relative="1" as="geometry">
            <mxPoint x="46" y="-229" as="sourcePoint" />
            <mxPoint x="121" y="-351" as="targetPoint" />
          </mxGeometry>
        </mxCell>
        <mxCell id="k2lacjBTQmWlSk6zZehX-38" value="" style="endArrow=none;html=1;rounded=0;exitX=0.5;exitY=0;exitDx=0;exitDy=0;entryX=1;entryY=0.5;entryDx=0;entryDy=0;" edge="1" parent="1" source="k2lacjBTQmWlSk6zZehX-33" target="k2lacjBTQmWlSk6zZehX-1">
          <mxGeometry width="50" height="50" relative="1" as="geometry">
            <mxPoint x="869" y="-242" as="sourcePoint" />
            <mxPoint x="725" y="-396" as="targetPoint" />
          </mxGeometry>
        </mxCell>
        <mxCell id="k2lacjBTQmWlSk6zZehX-39" value="1" style="text;html=1;align=center;verticalAlign=middle;resizable=0;points=[];autosize=1;strokeColor=none;fillColor=none;" vertex="1" parent="1">
          <mxGeometry x="450" y="-407" width="25" height="26" as="geometry" />
        </mxCell>
        <mxCell id="k2lacjBTQmWlSk6zZehX-43" value="N" style="text;html=1;align=center;verticalAlign=middle;resizable=0;points=[];autosize=1;strokeColor=none;fillColor=none;" vertex="1" parent="1">
          <mxGeometry x="46" y="-262.25" width="27" height="26" as="geometry" />
        </mxCell>
        <mxCell id="k2lacjBTQmWlSk6zZehX-44" value="Contains" style="shape=rhombus;perimeter=rhombusPerimeter;whiteSpace=wrap;html=1;align=center;" vertex="1" parent="1">
          <mxGeometry x="343.5" y="-513" width="120" height="60" as="geometry" />
        </mxCell>
        <mxCell id="k2lacjBTQmWlSk6zZehX-46" value="" style="endArrow=none;html=1;rounded=0;exitX=0.122;exitY=0.788;exitDx=0;exitDy=0;exitPerimeter=0;entryX=0.5;entryY=1;entryDx=0;entryDy=0;" edge="1" parent="1" source="k2lacjBTQmWlSk6zZehX-10" target="k2lacjBTQmWlSk6zZehX-44">
          <mxGeometry width="50" height="50" relative="1" as="geometry">
            <mxPoint x="368" y="-419" as="sourcePoint" />
            <mxPoint x="418" y="-469" as="targetPoint" />
          </mxGeometry>
        </mxCell>
        <mxCell id="k2lacjBTQmWlSk6zZehX-47" value="" style="endArrow=none;html=1;rounded=0;exitX=0.5;exitY=0;exitDx=0;exitDy=0;entryX=0.5;entryY=1;entryDx=0;entryDy=0;shape=link;" edge="1" parent="1" source="k2lacjBTQmWlSk6zZehX-44" target="k2lacjBTQmWlSk6zZehX-2">
          <mxGeometry width="50" height="50" relative="1" as="geometry">
            <mxPoint x="413" y="-417" as="sourcePoint" />
            <mxPoint x="414" y="-475" as="targetPoint" />
          </mxGeometry>
        </mxCell>
        <mxCell id="k2lacjBTQmWlSk6zZehX-49" value="Send" style="shape=rhombus;perimeter=rhombusPerimeter;whiteSpace=wrap;html=1;align=center;" vertex="1" parent="1">
          <mxGeometry x="-28.5" y="-388" width="120" height="60" as="geometry" />
        </mxCell>
        <mxCell id="k2lacjBTQmWlSk6zZehX-50" value="" style="endArrow=none;html=1;rounded=0;exitX=0.5;exitY=0;exitDx=0;exitDy=0;entryX=0.5;entryY=1;entryDx=0;entryDy=0;" edge="1" parent="1" source="YlkrvOhkguZ3ZTi_6gmJ-1" target="k2lacjBTQmWlSk6zZehX-49">
          <mxGeometry width="50" height="50" relative="1" as="geometry">
            <mxPoint x="46" y="-229" as="sourcePoint" />
            <mxPoint x="121" y="-351" as="targetPoint" />
          </mxGeometry>
        </mxCell>
        <mxCell id="k2lacjBTQmWlSk6zZehX-52" value="" style="endArrow=none;html=1;rounded=0;exitX=0.5;exitY=0;exitDx=0;exitDy=0;entryX=0.5;entryY=1;entryDx=0;entryDy=0;" edge="1" parent="1" source="k2lacjBTQmWlSk6zZehX-49" target="k2lacjBTQmWlSk6zZehX-2">
          <mxGeometry width="50" height="50" relative="1" as="geometry">
            <mxPoint x="46" y="-229" as="sourcePoint" />
            <mxPoint x="-9" y="-351" as="targetPoint" />
            <Array as="points">
              <mxPoint x="211" y="-435" />
            </Array>
          </mxGeometry>
        </mxCell>
        <mxCell id="k2lacjBTQmWlSk6zZehX-53" value="Send" style="shape=rhombus;perimeter=rhombusPerimeter;whiteSpace=wrap;html=1;align=center;" vertex="1" parent="1">
          <mxGeometry x="761.75" y="-388" width="120" height="60" as="geometry" />
        </mxCell>
        <mxCell id="k2lacjBTQmWlSk6zZehX-54" value="" style="endArrow=none;html=1;rounded=0;exitX=0.5;exitY=0;exitDx=0;exitDy=0;entryX=0.5;entryY=1;entryDx=0;entryDy=0;" edge="1" parent="1" source="YlkrvOhkguZ3ZTi_6gmJ-33" target="k2lacjBTQmWlSk6zZehX-53">
          <mxGeometry width="50" height="50" relative="1" as="geometry">
            <mxPoint x="910" y="-473" as="sourcePoint" />
            <mxPoint x="960" y="-523" as="targetPoint" />
          </mxGeometry>
        </mxCell>
        <mxCell id="k2lacjBTQmWlSk6zZehX-55" value="" style="endArrow=none;html=1;rounded=0;exitX=0.5;exitY=0;exitDx=0;exitDy=0;entryX=0.5;entryY=1;entryDx=0;entryDy=0;" edge="1" parent="1" source="k2lacjBTQmWlSk6zZehX-53" target="k2lacjBTQmWlSk6zZehX-2">
          <mxGeometry width="50" height="50" relative="1" as="geometry">
            <mxPoint x="869" y="-242" as="sourcePoint" />
            <mxPoint x="864" y="-392" as="targetPoint" />
            <Array as="points">
              <mxPoint x="617" y="-434" />
            </Array>
          </mxGeometry>
        </mxCell>
        <mxCell id="k2lacjBTQmWlSk6zZehX-56" value="N" style="text;html=1;align=center;verticalAlign=middle;resizable=0;points=[];autosize=1;strokeColor=none;fillColor=none;rounded=1;" vertex="1" parent="1">
          <mxGeometry x="401.5" y="-545" width="27" height="26" as="geometry" />
        </mxCell>
        <mxCell id="k2lacjBTQmWlSk6zZehX-57" value="N" style="text;html=1;align=center;verticalAlign=middle;resizable=0;points=[];autosize=1;strokeColor=none;fillColor=none;rounded=1;" vertex="1" parent="1">
          <mxGeometry x="361" y="-557" width="27" height="26" as="geometry" />
        </mxCell>
        <mxCell id="k2lacjBTQmWlSk6zZehX-58" value="1" style="text;html=1;align=center;verticalAlign=middle;resizable=0;points=[];autosize=1;strokeColor=none;fillColor=none;" vertex="1" parent="1">
          <mxGeometry x="845" y="-278" width="25" height="26" as="geometry" />
        </mxCell>
        <mxCell id="k2lacjBTQmWlSk6zZehX-59" value="1" style="text;html=1;align=center;verticalAlign=middle;resizable=0;points=[];autosize=1;strokeColor=none;fillColor=none;" vertex="1" parent="1">
          <mxGeometry x="19" y="-273" width="25" height="26" as="geometry" />
        </mxCell>
        <mxCell id="k2lacjBTQmWlSk6zZehX-63" value="Image" style="ellipse;whiteSpace=wrap;html=1;align=center;rounded=1;" vertex="1" parent="1">
          <mxGeometry x="1043" y="429" width="62" height="45" as="geometry" />
        </mxCell>
        <mxCell id="h6o7NREkk5LcOdEzi0ZQ-13" value="PrescriptionRequired" style="ellipse;whiteSpace=wrap;html=1;align=center;rounded=1;" vertex="1" parent="1">
          <mxGeometry x="1163" y="313.5" width="117" height="45" as="geometry" />
        </mxCell>
        <mxCell id="k2lacjBTQmWlSk6zZehX-65" value="" style="endArrow=none;html=1;rounded=1;entryX=0;entryY=0.5;entryDx=0;entryDy=0;exitX=0.5;exitY=1;exitDx=0;exitDy=0;" edge="1" parent="1" source="h6o7NREkk5LcOdEzi0ZQ-5" target="h6o7NREkk5LcOdEzi0ZQ-18">
          <mxGeometry relative="1" as="geometry">
            <mxPoint x="1043" y="387" as="sourcePoint" />
            <mxPoint x="1179" y="459" as="targetPoint" />
          </mxGeometry>
        </mxCell>
        <mxCell id="k2lacjBTQmWlSk6zZehX-67" value="" style="endArrow=none;html=1;rounded=1;entryX=0;entryY=1;entryDx=0;entryDy=0;exitX=0.5;exitY=0;exitDx=0;exitDy=0;" edge="1" parent="1" source="YlkrvOhkguZ3ZTi_6gmJ-80" target="YlkrvOhkguZ3ZTi_6gmJ-321">
          <mxGeometry width="50" height="50" relative="1" as="geometry">
            <mxPoint x="358" y="111" as="sourcePoint" />
            <mxPoint x="420" y="42" as="targetPoint" />
          </mxGeometry>
        </mxCell>
        <mxCell id="k2lacjBTQmWlSk6zZehX-70" value="1" style="text;html=1;align=center;verticalAlign=middle;resizable=0;points=[];autosize=1;strokeColor=none;fillColor=none;rounded=1;" vertex="1" parent="1">
          <mxGeometry x="878" y="-216" width="25" height="26" as="geometry" />
        </mxCell>
      </root>
    </mxGraphModel>
  </diagram>
</mxfile>
